<?xml version="1.0" encoding="UTF-8"?>
<svg width="2471px" height="940px" viewBox="0 0 2471 940" version="1.1" xmlns="http://www.w3.org/2000/svg" xmlns:xlink="http://www.w3.org/1999/xlink">
    <!-- Generator: Sketch 61.2 (89653) - https://sketch.com -->
    <title>Leaf</title>
    <desc>Created with Sketch.</desc>
    <g id="Page-1" stroke="none" stroke-width="1" fill="none" fill-rule="evenodd">
        <g id="leaf.arrow.circlepath" transform="translate(-507.000000, -630.000000)" fill="#000000">
            <g id="Leaf" transform="translate(506.000000, 630.000000)">
                <g id="Symbols">
                    <g id="Black-L" transform="translate(2379.050000, 854.000000)" fill-rule="nonzero">
                        <path d="M0.706960213,3.4306345 C0.413368447,6.8205551 0.1934,10.1368244 0.1934,13.2318381 C0.1934,46.3940785 20.6621852,69.3865572 47.2203702,69.3865572 C58.8854592,69.3865572 69.7433962,63.5646353 74.3654382,53.9108852 C78.1809291,59.1431441 80.2348695,65.1860198 83.388652,74.3239997 C83.9761361,75.7978703 85.3704716,76.5348057 86.7648071,75.8715669 L89.0381149,74.7661488 C91.2393019,73.6607458 92.1934,72.5553428 92.1934,70.0497205 C92.1934,63.490984 83.6831453,53.7634317 79.1335247,49.7839991 C60.279344,33.1291522 31.0800351,43.0041579 24.9173126,24.2122166 C24.7706669,23.8438093 24.7706669,23.5490533 24.7706669,23.2542973 C24.7706669,22.5173318 25.2842271,22.001471 25.7977873,22.001471 C26.5314663,22.001471 26.8982306,22.2962271 27.338468,22.8120878 C40.911002,36.4454215 59.8391066,25.9809037 77.3000036,39.6142373 C80.1612461,41.7513317 82.8026705,41.5302269 82.8762938,37.8455503 C82.8762938,37.182387 82.9484146,36.4454215 82.9484146,35.708456 C82.9484146,14.7794204 68.2761887,5.78883357 47.3670158,5.78883357 C40.3974418,5.78883357 33.3543947,7.63117188 26.8249078,7.63117188 C19.4149461,7.63117188 12.2985762,6.89420637 7.75000732,2.32526171 C4.44852734,-0.917356343 1.00040173,-0.6224494 0.706960213,3.4306345 Z" id="Shape"></path>
                    </g>
                    <g id="Heavy-L" transform="translate(2081.390000, 853.000000)" fill-rule="nonzero">
                        <path d="M1.16747397,3.35189809 C0.801534007,7.03457623 0.582,10.643643 0.582,14.1053364 C0.582,47.1759791 21.2160987,70.6714174 48.0695284,70.6714174 C59.849888,70.6714174 70.8253896,65.0001775 75.5082822,55.5724974 C79.4595946,60.9491411 81.5083789,67.2097241 84.8006397,76.711091 C85.3131355,78.1105057 86.6303395,78.6997432 87.8741158,78.1105057 L90.4350961,76.8584042 C92.703864,75.7535856 93.582,74.5751256 93.582,72.0709377 C93.582,65.368385 84.9474952,55.4251239 80.4107089,51.3004761 C61.3864762,34.2866056 32.1184722,44.3034781 25.5330514,25.2271329 C25.3867953,24.8589255 25.3867953,24.5641785 25.3867953,24.3433445 C25.3867953,23.6067787 25.8989913,23.0174356 26.4111874,23.0174356 C27.1427676,23.0174356 27.5087076,23.3121825 28.0209037,23.8277635 C41.9231756,37.8219103 61.3133482,26.7738759 79.0936547,41.5045884 C81.5818066,43.4195388 84.0693592,43.1987048 84.0693592,39.9578455 C84.142787,39.0740571 84.2162147,38.0428951 84.2162147,36.9381218 C84.2162147,15.7994528 69.3620793,6.73998008 48.2157845,6.73998008 C41.2647234,6.73998008 34.2403845,8.286723 27.7282416,8.286723 C19.7526386,8.286723 12.3625095,7.32932322 7.53321091,2.24712481 C4.67956852,-0.625376202 1.46013603,-0.257017883 1.16747397,3.35189809 Z" id="Shape"></path>
                    </g>
                    <g id="Bold-L" transform="translate(1783.880000, 852.000000)" fill-rule="nonzero">
                        <path d="M1.46177803,3.14703875 C1.02070133,7.11544173 0.7266,11.0839952 0.7266,14.8319063 C0.7266,47.9020816 21.8296127,71.9331419 49.1828434,71.9331419 C61.2417509,71.9331419 72.3448667,66.421446 77.1977645,57.161839 C81.3154843,62.6735349 83.4478319,69.1406456 86.8297713,79.0616832 C87.2709985,80.3110069 88.4486086,80.8254379 89.5509239,80.3110069 L92.4181483,78.9147136 C94.7718625,77.8123594 95.7266,76.5630507 95.7266,73.9909109 C95.7266,67.1563689 86.8297713,57.0147943 82.2714265,52.8258994 C62.9330218,35.3353969 33.3003175,45.4769715 26.2414339,26.2228347 C26.0944585,25.7818509 26.0208202,25.4879119 26.0208202,25.2674199 C26.0208202,24.5324971 26.6091735,23.9446189 27.1973761,23.9446189 C27.8590665,23.9446189 28.3002938,24.3120051 28.741521,24.752989 C43.1533897,39.1569056 63.2271231,27.4720381 81.5360979,43.4192476 C83.5949578,45.0361382 85.8750337,44.7420486 85.9473167,42.1700443 C86.0211055,40.9941376 86.0948944,39.6713366 86.0948944,38.2014908 C86.0948944,16.7425854 71.0211848,7.55642556 49.3299694,7.55642556 C42.3445734,7.55642556 35.2856897,8.87922656 28.6678828,8.87922656 C20.1384925,8.87922656 12.2707925,7.6298727 7.12364274,2.11817681 C4.77068151,-0.306933253 1.75602995,-0.0129942001 1.46177803,3.14703875 Z" id="Shape"></path>
                    </g>
                    <g id="Semibold-L" transform="translate(1486.970000, 851.000000)" fill-rule="nonzero">
                        <path d="M1.24140519,3.25802621 C0.800132209,7.49003463 0.5059,11.6491186 0.5059,15.5892799 C0.5059,48.4242557 21.8390157,72.6490669 49.4251308,72.6490669 C61.5629251,72.6490669 72.8180227,67.2495203 77.6732308,58.2747335 C81.9398238,63.820129 84.0731203,70.4601383 87.6036055,80.6024334 C87.9712074,81.7698969 89.0755198,82.2076975 90.0321888,81.6969276 L93.1944694,80.1646327 C95.549231,79.1431078 96.5059,77.8297057 96.5059,75.2758859 C96.5059,68.4170585 87.5312903,58.0558107 82.8225204,53.8967268 C63.4019894,36.2388509 33.6825777,46.3811759 26.2528002,27.0449919 C26.1056087,26.6072959 26.0320883,26.3883731 26.0320883,26.1694504 C26.0320883,25.3668332 26.6205528,24.7831388 27.2091678,24.7831388 C27.8711526,24.7831388 28.3125763,25.1479105 28.7539999,25.585756 C43.4665143,40.1790122 63.9169334,28.1396057 82.6018086,44.8488661 C84.3673525,46.3082515 86.4269779,45.9433304 86.5746213,43.7544018 C86.6484431,42.3679408 86.7945799,40.8357804 86.7945799,39.1574723 C86.7945799,17.6323596 71.4939024,8.43865008 49.5721716,8.43865008 C42.583667,8.43865008 35.4481217,9.60603885 28.9010407,9.60603885 C19.926431,9.60603885 11.7609976,8.14680289 6.39084549,2.23648632 C4.40474042,0.193406544 1.53578806,0.485253735 1.24140519,3.25802621 Z" id="Shape"></path>
                    </g>
                    <g id="Medium-L" transform="translate(1189.870000, 851.000000)" fill-rule="nonzero">
                        <path d="M1.33233136,2.59321516 C0.894259889,6.96439415 0.5293,11.3355731 0.5293,15.4881708 C0.5293,48.1989787 21.846486,72.7503618 49.5151103,72.7503618 C61.5607303,72.7503618 72.8033189,67.432196 77.7677303,58.5440674 C82.0748849,64.2265852 84.1919812,70.9290497 87.6961045,81.2741534 C88.0609149,82.3669407 89.08358,82.7312031 89.959723,82.2940852 L93.2445115,80.6913246 C95.653157,79.6713927 96.5293,78.2871836 96.5293,75.7373466 C96.5293,68.8163455 87.5495823,58.3254861 82.9508784,54.1000777 C63.5319025,36.2511591 33.8922555,46.5234371 26.3728259,26.9989769 C26.1537901,26.634625 26.0806786,26.3432329 26.0806786,26.1246516 C26.0806786,25.3232862 26.6648237,24.7405021 27.2488193,24.7405021 C27.9788886,24.7405021 28.3438485,25.1047049 28.854882,25.6146782 C43.6747055,40.4037567 64.2618222,27.9459637 83.02399,45.2849091 C84.5570906,46.5962478 86.5284123,46.1592344 86.6016734,44.337773 C86.7467004,42.8808128 86.8199615,41.1323114 86.8199615,39.2381886 C86.8199615,17.600875 71.5623656,8.34869283 49.5880724,8.34869283 C42.72575,8.34869283 35.6442424,9.36849037 29.0739178,9.36849037 C19.8754634,9.36849037 11.5528529,7.76575955 6.07755748,1.64622834 C4.3255706,-0.175083805 1.62432918,0.116308234 1.33233136,2.59321516 Z" id="Shape"></path>
                    </g>
                    <g id="Regular-L" transform="translate(892.970000, 850.000000)" fill-rule="nonzero">
                        <path d="M1.20854114,2.80174949 C0.624677443,7.41862718 0.2598,12.0355049 0.2598,16.4323597 C0.2598,49.4098217 21.8641022,74.3993739 49.7453129,74.3993739 C61.9342524,74.3993739 73.2473964,69.1962689 78.2834824,60.3290181 C82.6627591,66.1915913 84.8524722,73.0802874 88.4285999,83.852882 C88.7200834,84.8055539 89.6692729,85.0986826 90.3987289,84.732268 L93.9757535,83.0467669 C96.383855,81.9475082 97.2598,80.5551358 97.2598,77.9902338 C97.2598,70.8817099 88.2103611,60.1823863 83.5387041,55.8587723 C63.9779248,37.5378934 34.1989329,48.0174944 26.3892701,28.1576562 C26.1704333,27.7913017 26.0973383,27.498188 26.0973383,27.2783153 C26.0973383,26.5454561 26.754297,25.8859879 27.3381607,25.8859879 C27.9951195,25.8859879 28.4329425,26.2523424 28.870915,26.7653288 C43.9793225,41.9348983 64.9268155,28.9639064 84.0496222,47.2846352 C85.2173496,48.3838489 87.0420358,47.9441034 87.1880764,46.4051442 C87.3339676,44.792944 87.4800083,42.8143894 87.4800083,40.6890527 C87.4800083,18.7041781 72.0065739,9.32394096 49.8913536,9.32394096 C42.9574863,9.32394096 35.8777279,10.203432 29.2357925,10.203432 C19.6743891,10.203432 11.1349714,8.37120903 5.44192667,1.84901756 C4.05506353,0.310208407 1.4275274,0.603322058 1.20854114,2.80174949 Z" id="Shape"></path>
                    </g>
                    <g id="Light-L" transform="translate(595.180000, 850.000000)" fill-rule="nonzero">
                        <path d="M1.67279733,2.0556543 C1.01434182,7.04083061 0.6484,11.879468 0.6484,16.4981468 C0.6484,50.4414275 22.6727928,75.5872676 51.1360833,75.5872676 C63.5751081,75.5872676 75.062864,70.3088633 80.1848507,61.2914641 C84.7215103,67.3030135 86.9165618,74.340936 90.5750809,85.3377668 C90.8677444,86.2174958 91.7451356,86.5107538 92.4044903,86.2174958 L96.2092662,84.3847082 C98.6968314,83.2850356 99.6484,81.8188055 99.6484,79.1795734 C99.6484,71.9216924 90.2824173,61.1449252 85.5995009,56.6729354 C65.7703095,37.9784117 35.9166798,48.3886814 27.2825808,28.5212456 C27.1361741,28.0813285 26.9899172,27.86137 26.9899172,27.6414115 C26.9899172,26.8349969 27.6483728,26.1752714 28.2336998,26.1752714 C28.8923052,26.1752714 29.3313755,26.6150384 29.8435741,27.0549554 C45.2825127,42.5970905 66.8678352,29.1809711 86.4043631,48.2419923 C87.4287604,49.2683654 89.1116133,48.9018679 89.25802,47.5089974 C89.4775551,45.7494792 89.5506835,43.6234636 89.5506835,41.2774894 C89.5506835,18.9173904 73.8190814,9.3135353 51.2093615,9.3135353 C44.1849869,9.3135353 36.9410772,10.1932193 30.2093661,10.1932193 C20.2582062,10.1932193 11.2581653,8.36043169 5.47772312,1.24923977 C4.23379066,-0.217050384 1.89233245,0.0763277598 1.67279733,2.0556543 Z" id="Shape"></path>
                    </g>
                    <g id="Thin-L" transform="translate(297.693000, 849.000000)" fill-rule="nonzero">
                        <path d="M1.66755749,2.01115645 C0.864824351,7.4033272 0.5,12.5768742 0.5,17.5317976 C0.5,52.5078588 22.9769762,77.6468682 52.021837,77.6468682 C64.6467623,77.6468682 76.3960194,72.2547273 81.5773921,63.1464014 C86.2479209,69.194294 88.5102504,76.4081299 92.2321762,87.7753386 C92.5240655,88.5040196 93.2537142,88.7954831 93.9105774,88.5040196 L97.9967297,86.6094699 C100.550949,85.4436012 101.5,83.9133995 101.5,81.2901986 C101.5,73.8577688 91.9401373,62.9277777 87.1237385,58.3371277 C67.0549617,39.318955 37.3533872,49.5930751 27.7204401,29.8462065 C27.5014857,29.3361343 27.3556157,29.1175106 27.3556157,28.8990361 C27.3556157,28.0245413 28.0852644,27.3688195 28.6691926,27.3688195 C29.3259064,27.3688195 29.7638151,27.8059176 30.2746589,28.3159899 C46.1106662,44.1280795 68.2956036,30.2834539 88.3643804,50.1761214 C89.2400485,51.0504669 90.6996449,50.7590184 90.8455148,49.5202503 C91.0644692,47.6257603 91.2104886,45.2940228 91.2104886,42.7436617 C91.2104886,20.0821587 75.1555269,10.2451368 52.094772,10.2451368 C44.9429592,10.2451368 37.5723416,11.1194824 30.6394833,11.1194824 C20.203803,11.1194824 10.7167259,9.22499239 4.95157448,1.50108423 C3.92988695,0.116517207 1.88651188,0.408114961 1.66755749,2.01115645 Z" id="Shape"></path>
                    </g>
                    <g id="Ultralight-L" transform="translate(0.616000, 849.000000)" fill-rule="nonzero">
                        <path d="M1.62760343,1.5493742 C0.744797949,7.20228269 0.377,12.6349265 0.377,17.7737839 C0.377,53.5997943 23.3312986,79.0743127 52.9071657,79.0743127 C65.8558835,79.0743127 77.7744356,73.5682523 83.0717205,64.1712955 C87.8538472,70.4848477 90.1346164,77.7528299 93.9602575,89.4256394 C94.254526,90.1597898 94.9167431,90.3800244 95.5052801,90.1597898 L99.8466821,88.1776183 C102.42172,86.9295821 103.377,85.3878949 103.377,82.671588 C103.377,75.1099546 93.5924596,63.9510309 88.7366527,59.3260743 C68.2837116,39.8713667 38.413576,50.296125 28.1871055,30.3276671 C27.9663664,29.8137663 27.8191568,29.5935016 27.8191568,29.2998655 C27.8191568,28.4921783 28.5549034,27.7581632 29.1435911,27.7581632 C29.8056575,27.7581632 30.2471356,28.1985422 30.7621431,28.712443 C46.9479651,44.937003 69.6815246,30.6213032 90.2081459,51.1770333 C91.0174219,51.9845702 92.4152349,51.7644559 92.488915,50.5897611 C92.7831835,48.6076798 92.856713,46.1115474 92.856713,43.3953007 C92.856713,20.3432877 76.5973616,10.3590588 53.0543753,10.3590588 C45.7707404,10.3590588 38.192837,11.1665956 31.1299411,11.1665956 C20.3149336,11.1665956 10.5297904,9.25788577 4.64411918,1.10899521 C3.76116302,-0.212442434 1.92187193,0.0076718815 1.62760343,1.5493742 Z" id="Shape"></path>
                    </g>
                    <g id="Black-M" transform="translate(2385.970000, 429.000000)" fill-rule="nonzero">
                        <path d="M0.939473333,3.66542274 C0.793574667,5.93973057 0.7207,8.28735955 0.7207,10.4148748 C0.7207,36.4589073 16.251964,53.552501 36.5227693,53.552501 C45.418556,53.552501 53.658172,48.9305642 57.1582467,41.1541653 C60.0020013,44.9689685 61.5332653,49.4441127 63.9394733,56.1202437 C64.37702,57.4407756 65.6164867,58.1011167 66.8561027,57.5140967 L68.314492,56.7805848 C69.9915053,55.90013 70.7207,55.0931466 70.7207,53.185745 C70.7207,48.2703734 64.2311213,41.0073727 60.7310467,37.9995529 C46.366524,25.4542744 24.126908,32.8640676 19.4602413,18.7049725 C19.3873667,18.4848589 19.3873667,18.191424 19.3873667,17.9713103 C19.3873667,17.4577618 19.7518893,17.0908555 20.1165613,17.0908555 C20.6998573,17.0908555 20.9915053,17.2376481 21.3561773,17.6044041 C31.418556,27.8019034 45.6373293,20.3189393 58.7623853,29.7094552 C61.3873667,31.6168568 63.6478253,31.6168568 63.6478253,28.0954885 C63.6478253,27.8753748 63.6478253,27.5819399 63.6478253,27.3618262 C63.6478253,11.4419719 52.49158,4.47240612 36.595644,4.47240612 C31.199932,4.47240612 25.658172,6.23316541 20.6269827,6.23316541 C15.37702,6.23316541 10.199932,5.93973057 7.06452933,2.78511822 C4.074876,-0.222851844 1.23112133,0.0705829971 0.939473333,3.66542274 Z" id="Shape"></path>
                    </g>
                    <g id="Heavy-M" transform="translate(2089.190000, 429.000000)" fill-rule="nonzero">
                        <path d="M0.718439444,2.63816033 C0.499505666,5.21947745 0.3535,7.87480974 0.3535,10.2349876 C0.3535,36.1969444 16.1150881,53.9719162 36.6196935,53.9719162 C45.6680098,53.9719162 53.9865968,49.3991376 57.5621664,41.8023103 C60.5538629,45.8587952 62.0862499,50.5054379 64.5673001,57.5859716 C65.0050182,58.7661361 66.0996871,59.3561428 67.1942065,58.8398492 L68.9455273,57.9548391 C70.6237706,57.1433911 71.3535,56.258381 71.3535,54.3407837 C71.3535,49.2515604 64.7862339,41.6547331 61.2835923,38.6308354 C46.6896012,25.6497815 24.2876694,33.2466088 19.3987959,18.7905381 C19.3257184,18.4955347 19.2527903,18.2005314 19.2527903,18.0529542 C19.2527903,17.4629475 19.6906578,17.094231 20.0554478,17.094231 C20.6391716,17.094231 20.9310335,17.3155213 21.2959729,17.6842377 C31.7306706,28.2312497 46.3246617,20.1919928 59.8241334,30.6651406 C62.0862499,32.2878856 64.1294325,32.2140215 64.1294325,29.2638369 C64.2023607,28.7475433 64.2023607,28.2312497 64.2023607,27.6412429 C64.2023607,11.4150011 52.8920773,4.40818046 36.6926216,4.40818046 C31.3658806,4.40818046 25.8931339,5.88334828 20.8581054,5.88334828 C15.0934968,5.88334828 9.62075013,5.36705465 6.19118612,1.82686334 C3.56427967,-0.828468961 0.937223779,-0.533465606 0.718439444,2.63816033 Z" id="Shape"></path>
                    </g>
                    <g id="Bold-M" transform="translate(1791.500000, 428.000000)" fill-rule="nonzero">
                        <path d="M1.30061049,2.52175763 C1.00942579,5.35670752 0.791,8.19165742 0.791,10.8811604 C0.791,36.1776134 16.8072018,54.2049948 37.5554157,54.2049948 C46.6554965,54.2049948 55.100449,49.916171 58.7404813,42.7197482 C61.8709031,46.863274 63.4724934,51.6607899 66.0205459,59.0026595 C66.3846386,60.0929905 67.3309515,60.5290336 68.2774136,60.0929905 L70.3158556,59.0753086 C72.0631128,58.2757226 72.791,57.3306896 72.791,55.4407727 C72.791,50.2797139 66.0933048,42.5744502 62.5261805,39.4487553 C47.8931433,26.3643368 25.2521543,33.9969515 20.1560494,19.3860101 C20.0103825,19.1679141 20.0103825,18.8771691 20.0103825,18.731871 C20.0103825,18.1502321 20.4472341,17.7141891 20.8113268,17.7141891 C21.3936962,17.7141891 21.6848808,17.932285 22.0488244,18.3683281 C32.8234036,29.1266377 47.8931433,20.5491389 61.6524773,32.0342366 C63.4724934,33.4153126 65.3654176,33.2700145 65.4381765,30.8712566 C65.4381765,30.1443196 65.5109354,29.3447336 65.5109354,28.3997007 C65.5109354,12.1895873 54.0084691,5.21126059 37.6281746,5.21126059 C32.3137931,5.21126059 26.8537446,6.37438948 21.8303986,6.37438948 C15.642463,6.37438948 9.81832186,5.5748035 6.10553066,1.64952261 C3.99432981,-0.4586392 1.51903628,-0.167745324 1.30061049,2.52175763 Z" id="Shape"></path>
                    </g>
                    <g id="Semibold-M" transform="translate(1494.500000, 427.000000)" fill-rule="nonzero">
                        <path d="M1.2776284,2.71999198 C0.985062144,5.80843174 0.7656,8.8967209 0.7656,11.8381782 C0.7656,37.2072681 17.0041508,55.8847385 37.9970156,55.8847385 C47.2135269,55.8847385 55.8447558,51.6933276 59.5020587,44.56061 C62.7204373,48.8990035 64.3297764,53.89927 66.9630226,61.6203694 C67.3286929,62.576358 68.2065415,62.9439649 69.0111362,62.576358 L71.2785621,61.399745 C73.1072136,60.5908894 73.7656,59.6349008 73.7656,57.6495828 C73.7656,52.3552007 66.9630226,44.4869682 63.4519279,41.2515459 C48.603254,27.7213245 25.7084838,35.5894064 20.3688875,20.5886069 C20.2225294,20.2944913 20.2225294,20.0738669 20.2225294,19.9268844 C20.2225294,19.3385026 20.6614537,18.8974045 21.1002282,18.8974045 C21.6122566,18.8974045 21.9049727,19.1178782 22.270643,19.4856357 C33.3889098,30.6627817 48.8227162,21.6180868 62.9398995,33.9716952 C64.4759847,35.2217995 66.231532,35.0011751 66.3046361,33.0158572 C66.37789,32.1333597 66.4509942,31.0303886 66.4509942,29.9274174 C66.4509942,13.3087562 54.7475948,6.24952985 38.1433737,6.24952985 C32.8036275,6.24952985 27.3176731,7.20551852 22.270643,7.20551852 C15.6875277,7.20551852 9.61629105,6.1760386 5.59331775,1.91113642 C3.83777041,0.0728009307 1.49709054,0.366916537 1.2776284,2.71999198 Z" id="Shape"></path>
                    </g>
                    <g id="Medium-M" transform="translate(1197.300000, 427.000000)" fill-rule="nonzero">
                        <path d="M1.52349675,2.18320198 C1.22957362,5.42088234 0.9355,8.58502016 0.9355,11.6756154 C0.9355,36.9888687 17.3962484,55.9738463 38.7071046,55.9738463 C48.0398034,55.9738463 56.6376192,51.8530526 60.4587703,44.862442 C63.7656688,49.2775565 65.3823212,54.4285487 68.1013735,62.3021219 C68.3952966,63.1850846 69.2036228,63.552948 69.9385059,63.1850846 L72.3634845,62.0078011 C74.2006169,61.198381 74.9355,60.1681826 74.9355,58.1813282 C74.9355,52.8095578 68.0277798,44.7888994 64.4269582,41.4775258 C49.4359759,27.7172336 26.3615809,35.7378919 20.8501838,20.5793871 C20.7031469,20.2850663 20.6297038,20.0642879 20.6297038,19.8435096 C20.6297038,19.3284104 21.1441069,18.8134619 21.5849163,18.8134619 C22.0993194,18.8134619 22.393393,19.1077827 22.7607593,19.4756462 C34.1510705,30.8076781 49.8769358,21.4625005 64.2800719,34.4133726 C65.6028012,35.5908068 67.2194536,35.2227927 67.2928968,33.6039525 C67.3664904,32.5737541 67.4399336,31.3227774 67.4399336,29.998258 C67.4399336,13.2944556 55.6822562,6.15675989 38.7805478,6.15675989 C33.4161874,6.15675989 27.9782334,6.96617998 22.9077961,6.96617998 C16.000076,6.96617998 9.75379571,5.86243901 5.56512782,1.30023934 C4.02191855,-0.245058293 1.74397671,0.0492625855 1.52349675,2.18320198 Z" id="Shape"></path>
                    </g>
                    <g id="Regular-M" transform="translate(900.300000, 426.000000)" fill-rule="nonzero">
                        <path d="M1.56498813,2.34887954 C1.20123351,5.79230318 0.9102,9.162504 0.9102,12.459482 C0.9102,37.4427216 17.3545617,56.7848024 38.6013487,56.7848024 C47.9150169,56.7848024 56.573897,52.755146 60.3574816,46.0881172 C63.7045905,50.4838878 65.3782194,55.7590826 68.0703911,63.964691 C68.3614246,64.6973695 69.161804,64.9904109 69.74402,64.6241467 L72.3634706,63.3786083 C74.2552628,62.572707 74.9102,61.5469872 74.9102,59.5687704 C74.9102,54.0739072 67.9976699,45.9415215 64.4322487,42.6445435 C49.4430546,28.6510304 26.4499175,36.7834161 20.7743916,21.3977689 C20.7016705,21.1047275 20.5562282,20.9581318 20.5562282,20.7383133 C20.5562282,20.1522305 21.0654251,19.7125935 21.5020499,19.7125935 C22.0841169,19.7125935 22.3752994,20.0057849 22.739054,20.3720491 C34.2355481,31.9478584 50.0979917,22.1304473 64.6505611,35.904292 C65.6692529,36.8566389 67.1245694,36.4170018 67.1972906,35.1716135 C67.3427328,33.999298 67.4156029,32.5340911 67.4156029,30.9955114 C67.4156029,14.2177302 55.6279264,7.03784154 38.74694,7.03784154 C33.4351687,7.03784154 28.0506763,7.69714711 23.0300876,7.69714711 C15.826524,7.69714711 9.42333982,6.37838592 5.05768823,1.54297827 C3.89340519,0.297439913 1.71057939,0.590481282 1.56498813,2.34887954 Z" id="Shape"></path>
                    </g>
                    <g id="Light-M" transform="translate(603.420000, 426.000000)" fill-rule="nonzero">
                        <path d="M1.17750529,1.71333719 C0.738152126,5.46669663 0.4453,9.07265273 0.4453,12.6052086 C0.4453,38.5836165 17.3585974,58.0859233 39.1775053,58.0859233 C48.7690497,58.0859233 57.6283888,53.9646584 61.5089419,47.04695 C64.9501418,51.6832223 66.7074045,57.055607 69.4895747,65.5187898 C69.7092513,66.2547515 70.4414565,66.475555 70.9539853,66.1812005 L73.8094809,64.8565297 C75.7130947,64.0470171 76.4453,62.8694482 76.4453,60.8823667 C76.4453,55.2893291 69.270048,46.9732483 65.6823471,43.5143941 C50.3798114,29.1636685 27.2429939,37.2589458 20.8731228,21.804353 C20.7997973,21.5099985 20.6534462,21.2891949 20.6534462,21.142093 C20.6534462,20.5532332 21.1659749,20.0380751 21.6785036,20.0380751 C22.1910323,20.0380751 22.4838845,20.3325803 22.8499121,20.7004858 C34.711248,32.6225227 51.1851922,22.3930621 66.1215503,36.8910403 C67.0734322,37.7005529 68.3913417,37.4061984 68.5378428,36.3023312 C68.6110183,34.9775097 68.7575193,33.3584844 68.7575193,31.6659082 C68.7575193,14.4450375 56.6765069,7.08572194 39.3238564,7.08572194 C33.9058671,7.08572194 28.3412269,7.74798196 23.1427643,7.74798196 C15.6013347,7.74798196 8.79211041,6.34976024 4.32585308,1.05107717 C3.30079566,-0.12649169 1.39718187,0.0943118909 1.17750529,1.71333719 Z" id="Shape"></path>
                    </g>
                    <g id="Thin-M" transform="translate(305.806000, 425.000000)" fill-rule="nonzero">
                        <path d="M1.41996619,1.79078902 C0.833938733,5.96415742 0.541,9.91785117 0.541,13.6518703 C0.541,40.5958276 17.8987824,60.2179466 40.3100204,60.2179466 C50.124143,60.2179466 59.2056937,55.9714033 63.2339387,48.9425644 C66.8227007,53.628457 68.5071359,59.1928982 71.4366732,67.9789843 C71.6564148,68.5646833 72.2424423,68.784343 72.7549725,68.5646833 L75.9044014,67.1002857 C77.8085782,66.2217371 78.541,65.0503389 78.541,63.0002421 C78.541,57.2893012 71.2170817,48.7228897 67.4817754,45.2817202 C51.8817754,30.4918436 28.8114627,38.5457308 21.5607415,23.1701552 C21.4141972,22.8039808 21.2678028,22.5843062 21.2678028,22.4379564 C21.2678028,21.7789324 21.8536803,21.2664082 22.2931634,21.2664082 C22.8058437,21.2664082 23.1719796,21.6325826 23.5381155,21.9986071 C35.7690951,34.2258627 52.8339387,23.5361796 68.3607415,38.8385804 C69.0930134,39.4974544 70.2649183,39.2779297 70.3381155,38.3260562 C70.557857,36.8616585 70.6310542,35.1045613 70.6310542,33.1276394 C70.6310542,15.5554673 58.2536803,8.01410422 40.3832176,8.01410422 C34.8902789,8.01410422 29.1775986,8.67312815 23.8312042,8.67312815 C15.7748641,8.67312815 8.52414296,7.20873049 4.05656479,1.35143973 C3.25094577,0.253216459 1.56636056,0.472741155 1.41996619,1.79078902 Z" id="Shape"></path>
                    </g>
                    <g id="Ultralight-M" transform="translate(8.656000, 425.000000)" fill-rule="nonzero">
                        <path d="M1.44303584,1.36533647 C0.7840215,5.675929 0.5645,9.76731858 0.5645,13.712523 C0.5645,41.1830678 18.1362664,60.7630542 40.8332001,60.7630542 C50.7905394,60.7630542 59.9426667,56.5256291 64.0426505,49.3656973 C67.7034415,54.1145461 69.4606631,59.7402068 72.3892658,68.7265705 C72.5357634,69.2379942 73.121454,69.4571673 73.5607969,69.2379942 L76.8555687,67.7768008 C78.8323118,66.8269712 79.5645,65.5850704 79.5645,63.5393756 C79.5645,57.7675298 72.0964205,49.1464944 68.3624558,45.6396959 C52.6209349,30.6623731 29.5579821,38.6989671 21.8702312,23.3564058 C21.6507097,22.9179999 21.5773859,22.7719643 21.5773859,22.5527614 C21.5773859,21.8951525 22.1632264,21.3837288 22.6024194,21.3837288 C23.0417622,21.3837288 23.4811051,21.7491169 23.8471243,22.1143555 C36.2938734,34.5345597 53.6459683,23.5756088 69.3874892,39.2834086 C70.0463536,39.9410174 71.1447109,39.7948323 71.2178847,38.8451523 C71.4375562,37.3108812 71.51073,35.4843893 71.51073,33.4386946 C71.51073,15.6850504 58.990807,8.01384453 40.9796977,8.01384453 C35.3420137,8.01384453 29.5579821,8.67130378 24.1399695,8.67130378 C15.8665281,8.67130378 8.39859857,7.13718231 3.85912186,1.00009795 C3.12693369,-0.0227494418 1.66270729,0.12343574 1.44303584,1.36533647 Z" id="Shape"></path>
                    </g>
                    <g id="Black-S" transform="translate(2391.570000, 3.000000)" fill-rule="nonzero">
                        <path d="M0.443746749,2.43350592 C0.297599054,4.2774627 0.2246,6.12141948 0.2246,7.81794431 C0.2246,28.3227679 12.4224726,41.8204952 28.3453911,41.8204952 C35.3573392,41.8204952 41.8579946,38.1325817 44.5606051,32.0106814 C46.824922,35.1085651 47.9935052,38.6488956 49.8925277,43.885751 C50.2578222,44.9183789 51.2072586,45.4346928 52.1568447,44.9920949 L53.3255775,44.4020649 C54.6403084,43.7383191 55.2246,43.0744221 55.2246,41.5991963 C55.2246,37.6901348 50.1116745,31.9369655 47.4092136,29.5766947 C36.0877785,19.6930139 18.6309822,25.5198992 14.9789353,14.3824425 C14.9059363,14.1611435 14.9059363,13.9398446 14.9059363,13.7922616 C14.9059363,13.3498146 15.1980821,13.0547997 15.4902279,13.0547997 C15.9285214,13.0547997 16.1475185,13.2022316 16.4398139,13.4972466 C24.4011984,21.5369707 35.5764859,15.6362183 45.875336,23.0859125 C47.9205062,24.5609873 49.673381,24.5609873 49.673381,21.8319856 L49.673381,21.1682397 C49.673381,8.62927321 40.9085582,3.17111885 28.4185398,3.17111885 C24.1820517,3.17111885 19.8727141,4.49876169 15.9285214,4.49876169 C11.7651819,4.49876169 7.67484152,4.2774627 5.19137782,1.76976003 C2.85406181,-0.590510687 0.662893498,-0.369362762 0.443746749,2.43350592 Z" id="Shape"></path>
                    </g>
                    <g id="Heavy-S" transform="translate(2094.470000, 2.000000)" fill-rule="nonzero">
                        <path d="M0.640030726,2.71909517 C0.419245005,4.778917 0.3457,6.76521681 0.3457,8.60432192 C0.3457,28.7609561 12.7820398,42.6646028 28.971134,42.6646028 C36.0355235,42.6646028 42.6584923,39.1335873 45.4547096,33.2483606 C47.8095061,36.4116153 49.0605247,40.0163035 50.9739005,45.5336189 C51.2682312,46.4900078 52.1512234,46.9312905 53.0342156,46.4900078 L54.4324749,45.8278576 C55.7570385,45.1658581 56.3457,44.503708 56.3457,42.9588416 C56.3457,38.9863926 51.1209905,33.1748385 48.3983183,30.747256 C36.9186664,20.6688635 19.1840721,26.6276123 15.3574713,15.2987429 C15.2839263,15.0780262 15.2839263,14.8573094 15.2839263,14.7101147 C15.2839263,14.268832 15.578257,13.9744426 15.8725877,13.9744426 C16.3141592,13.9744426 16.5349449,14.1216373 16.8292756,14.415876 C25.0711388,22.6551633 36.6243357,16.4021758 47.2208447,24.4942684 C48.9869797,25.8184181 50.6058741,25.7447454 50.6058741,23.4643575 C50.6794191,23.0229241 50.6794191,22.6551633 50.6794191,22.2137299 C50.6794191,9.56071082 41.7753494,4.1169175 29.0448297,4.1169175 C24.7766574,4.1169175 20.4350908,5.22035044 16.5349449,5.22035044 C11.9724419,5.22035044 7.70442028,4.778917 4.98174803,2.05709567 C2.92128224,-0.0027261591 0.787271443,0.21799056 0.640030726,2.71909517 Z" id="Shape"></path>
                    </g>
                    <g id="Bold-S" transform="translate(1797.440000, 2.000000)" fill-rule="nonzero">
                        <path d="M0.660517325,1.93751159 C0.514808663,4.13643937 0.3691,6.33536715 0.3691,8.38777981 C0.3691,28.1787303 12.8217471,42.3989537 28.9881008,42.3989537 C36.0517645,42.3989537 42.6058206,39.0271543 45.4458719,33.3830195 C47.8489463,36.6083038 49.0869479,40.4197986 51.1258252,46.2104485 C51.4172426,47.0167321 52.2182674,47.3833201 52.9463632,47.0167321 L54.4756331,46.2104485 C55.8593434,45.6240878 56.3691,44.8910618 56.3691,43.3517524 C56.3691,39.3203347 51.1987541,33.309762 48.4314827,30.8175037 C36.9984979,20.5555905 19.2299455,26.6394208 15.370381,15.1313785 C15.2976012,14.9114557 15.2976012,14.6915329 15.2976012,14.5450178 C15.2976012,14.1051722 15.5888694,13.7387343 15.9530665,13.7387343 C16.3898942,13.7387343 16.6083826,13.9586571 16.8996508,14.2518374 C25.274245,22.6812607 36.9257182,16.0110697 47.7032376,24.9535962 C49.1597277,26.1263177 50.6160686,25.9063949 50.6889975,24.073905 C50.6889975,23.4875443 50.7617773,22.827926 50.7617773,22.1681576 C50.7617773,9.41398614 41.8046467,3.98977413 29.0608806,3.98977413 C24.8372682,3.98977413 20.6136558,4.86946533 16.7540913,4.86946533 C11.9477934,4.86946533 7.43291279,4.28295449 4.51993265,1.27774318 C2.84510329,-0.408231555 0.878856611,-0.188308753 0.660517325,1.93751159 Z" id="Shape"></path>
                    </g>
                    <g id="Semibold-S" transform="translate(1500.200000, 1.000000)" fill-rule="nonzero">
                        <path d="M1.05333134,2.39950477 C0.832662661,4.75170613 0.6855,7.03029299 0.6855,9.23556644 C0.6855,28.8617324 13.3359157,43.4894893 29.737247,43.4894893 C36.9449036,43.4894893 43.6378675,40.1816544 46.5797651,34.7421605 C49.0804759,38.0499954 50.3306807,41.945843 52.3900542,47.8998857 C52.6842289,48.6349768 53.419741,49.0024471 54.081747,48.6349768 L55.7732892,47.8262712 C57.1706566,47.1647945 57.6855,46.4297034 57.6855,44.8860571 C57.6855,40.7698176 52.3900542,34.5952326 49.5951687,32.0959528 C37.9745904,21.6580499 19.9552229,27.8326349 15.9836386,16.0716281 C15.9101325,15.8510857 15.8364759,15.7041578 15.8364759,15.5570794 C15.8364759,15.1159946 16.2043072,14.7485243 16.571988,14.7485243 C16.9398193,14.7485243 17.233994,14.9690667 17.5281687,15.263073 C26.1333434,23.8633233 38.121753,16.8801832 49.1539819,26.4360671 C50.4043374,27.3915501 51.8017048,27.1710077 51.8752108,25.627512 C51.8752108,24.9658848 51.9488675,24.1573297 51.9488675,23.3487746 C51.9488675,10.4115919 42.8288494,4.89863403 29.810753,4.89863403 C25.692006,4.89863403 21.426247,5.70718914 17.4546627,5.70718914 C12.3797349,5.70718914 7.74614458,4.89863403 4.58357832,1.73787757 C3.18621085,0.267845814 1.20034337,0.488237672 1.05333134,2.39950477 Z" id="Shape"></path>
                    </g>
                    <g id="Medium-S" transform="translate(1203.830000, 1.000000)" fill-rule="nonzero">
                        <path d="M0.586907588,2.00653618 C0.367653794,4.40113765 0.1484,6.72321597 0.1484,9.04529428 C0.1484,28.275075 12.8637731,42.9330736 29.232977,42.9330736 C36.3945692,42.9330736 43.1176538,39.7402717 46.0406885,34.4429609 C48.5253653,37.7809577 49.8407384,41.6995856 51.8869076,47.7224252 C52.1060117,48.4481025 52.8368078,48.6658206 53.4213848,48.3754308 L55.2483002,47.5047071 C56.6368577,46.9242247 57.1484,46.1260242 57.1484,44.6021464 C57.1484,40.5384722 51.8869076,34.3704377 49.1099423,31.8306413 C37.4906885,21.3813632 19.513823,27.5493977 15.4214846,15.8663343 C15.3484499,15.6487649 15.3484499,15.4310468 15.3484499,15.2858519 C15.3484499,14.8504158 15.6407384,14.4876514 16.0060616,14.4876514 C16.4445692,14.4876514 16.663823,14.7053695 16.9561115,14.9956107 C25.7253653,23.7034415 37.782977,16.5920117 48.8176538,26.3882842 C49.9137731,27.2591565 51.2291462,26.9687666 51.3021809,25.6626069 C51.3753653,24.9370781 51.4484,23.9936827 51.4484,23.0502873 C51.4484,10.2789309 42.313823,4.83657377 29.3061614,4.83657377 C25.1407883,4.83657377 20.9754152,5.48957935 17.1023306,5.48957935 C11.8406885,5.48957935 7.09073839,4.61885571 3.8022308,1.28085884 C2.56004207,0.047222225 0.733126671,0.264940288 0.586907588,2.00653618 Z" id="Shape"></path>
                    </g>
                    <g id="Regular-S" transform="translate(906.580000, 1.000000)" fill-rule="nonzero">
                        <path d="M0.980686936,1.46086888 C0.685915963,4.00960282 0.4648,6.48540926 0.4648,8.96136484 C0.4648,27.9674036 13.3619734,43.0411738 30.0175144,43.0411738 C37.3135866,43.0411738 44.0937717,39.9099148 47.1152874,34.7396685 C49.6947221,38.1623393 50.9476119,42.1673861 53.0848147,48.4299043 C53.3059306,49.0853569 53.9692785,49.3038411 54.4851655,49.0125786 L56.4749073,48.0658634 C57.9489131,47.4833382 58.4648,46.6823288 58.4648,45.1530885 C58.4648,40.9294083 53.0111597,34.6668902 50.210609,32.1181562 C38.4928214,21.4136228 20.2158136,27.7489193 16.0150631,15.8064082 C15.9414081,15.5879239 15.8676021,15.4423672 15.8676021,15.2966614 C15.8676021,14.8598421 16.2361791,14.495652 16.604605,14.495652 C17.046837,14.495652 17.2679529,14.7141362 17.5627239,15.0053988 C26.5537668,23.8895784 38.9349024,16.4618608 50.284415,26.8023533 C51.0950729,27.6033626 52.3478118,27.2391726 52.4216177,26.2198281 C52.4952727,25.3458913 52.5689277,24.3263977 52.5689277,23.2341258 C52.5689277,10.272121 43.3567688,4.73783382 30.0913204,4.73783382 C25.9642249,4.73783382 21.7634744,5.24758061 17.7838399,5.24758061 C12.3301995,5.24758061 7.39244613,4.22808703 3.92869853,0.73263788 C2.89692466,-0.214077336 1.12814789,-0.068371481 0.980686936,1.46086888 Z" id="Shape"></path>
                    </g>
                    <g id="Light-S" transform="translate(609.600000, 0.000000)" fill-rule="nonzero">
                        <path d="M0.708347394,1.88301727 C0.415198898,4.67656277 0.1953,7.46995771 0.1953,10.1164111 C0.1953,30.1120543 13.3144832,45.3292366 30.2448971,45.3292366 C37.6474596,45.3292366 44.5368245,42.1681867 47.6151088,36.8016585 C50.2535954,40.3303634 51.5728387,44.5206064 53.7716776,51.0632691 C53.9915765,51.6513364 54.5778735,51.8718993 55.0176712,51.5778657 L57.1431104,50.5486726 C58.6088529,49.9606053 59.1953,49.0783538 59.1953,47.5345642 C59.1953,43.1973797 53.6250283,36.7281878 50.8398924,34.0817344 C38.8934532,22.9813242 20.7902953,29.3034241 16.0263695,17.2472917 C15.9531199,17.0267288 15.8797202,16.8796367 15.8797202,16.7326952 C15.8797202,16.2180986 16.2462684,15.8504437 16.6126665,15.8504437 C17.0524643,15.8504437 17.2723632,16.0710065 17.5655117,16.3650402 C26.8002147,25.6277776 39.4797502,17.7618882 51.133191,28.7888276 C51.8659872,29.523987 52.9654817,29.2298028 53.0387313,28.3477018 C53.1119809,27.3185088 53.1852305,26.1423742 53.1852305,24.8926182 C53.1852305,11.5132591 43.8038782,5.77922659 30.3182968,5.77922659 C26.1406681,5.77922659 21.81639,6.29382312 17.7854106,6.29382312 C11.99524,6.29382312 6.79151642,5.26463007 3.34683396,1.29494997 C2.46738847,0.33922769 0.854996693,0.559790566 0.708347394,1.88301727 Z" id="Shape"></path>
                    </g>
                    <g id="Thin-S" transform="translate(311.867000, 0.000000)" fill-rule="nonzero">
                        <path d="M1.14781542,1.07102034 C0.70680514,4.22957156 0.4863,7.31455965 0.4863,10.2528728 C0.4863,31.1875265 14.082662,46.539656 31.5742134,46.539656 C39.2176891,46.539656 46.3465526,43.2341289 49.4333235,37.7250174 C52.2995893,41.3977584 53.6224696,45.731665 55.9006715,52.5629572 C56.0477251,53.0771469 56.5621869,53.2239723 56.9295952,53.0771469 L59.3550012,51.9017916 C60.8982361,51.2407764 61.4863,50.2858096 61.4863,48.7432404 C61.4863,44.2625084 55.6801664,37.5780416 52.8140511,34.8602674 C40.614021,23.4012674 22.4609542,29.7183699 16.9489278,17.5983547 C16.8020247,17.3045535 16.7284226,17.1575777 16.7284226,17.0107523 C16.7284226,16.5699752 17.1694329,16.1291982 17.5369916,16.1291982 C17.9043999,16.1291982 18.1983565,16.4229994 18.4923132,16.7168006 C28.0465827,26.2660174 41.348988,17.9655687 53.4019645,29.791933 C53.9898778,30.3795355 55.0188015,30.1591469 55.092253,29.351156 C55.1658551,28.2493638 55.2393066,26.927183 55.2393066,25.3846138 C55.2393066,11.7218789 45.6115856,5.84555352 31.6478154,5.84555352 C27.3116157,5.84555352 22.8285129,6.35974328 18.7128184,6.35974328 C12.465825,6.35974328 6.88034699,5.18438794 3.35256579,0.703655979 C2.61759882,-0.1777477 1.2947185,-0.0309223045 1.14781542,1.07102034 Z" id="Shape"></path>
                    </g>
                    <g id="Ultralight-S" transform="translate(16.000000, 1.000000)" fill-rule="nonzero">
                        <path d="M0.736369982,0.885001091 C0.220926075,4.18739097 1.13686838e-13,7.41658478 1.13686838e-13,10.4254389 C1.13686838e-13,31.9283978 13.7696512,47.3400015 31.6627028,47.3400015 C39.3943614,47.3400015 46.6104253,43.9641149 49.7766805,38.3864848 C52.6484179,42.1294038 54.0475661,46.5327406 56.330117,53.5045527 C56.4774513,53.9449315 56.9928952,54.0917745 57.3610048,53.9449315 L59.8646326,52.7706382 C61.4109643,52.036874 62,51.0827701 62,49.4682484 C62,44.9915652 56.1829335,38.2397921 53.2376044,35.4509771 C40.8669506,23.782142 22.6793811,30.0936867 16.7149803,17.9844729 C16.5677968,17.6909371 16.4940542,17.5440941 16.4940542,17.3974014 C16.4940542,16.8836762 16.9359064,16.4432975 17.304016,16.4432975 C17.6722764,16.4432975 17.9667942,16.7368332 18.261312,17.030369 C28.0545955,26.7178001 41.6769123,18.2046623 53.9738236,30.4605688 C54.4892675,30.9742939 55.4465635,30.8274509 55.5201553,30.0936867 C55.6674896,28.9193934 55.7410814,27.4515643 55.7410814,25.9105392 C55.7410814,11.9666143 45.8740554,5.94875575 31.7362946,5.94875575 C27.3183763,5.94875575 22.7529729,6.46248088 18.4822381,6.46248088 C12.0759851,6.46248088 6.25891865,5.36168426 2.72455385,0.517968682 C2.06177563,-0.289292197 0.8837043,-0.142449173 0.736369982,0.885001091 Z" id="Shape"></path>
                    </g>
                </g>
            </g>
        </g>
    </g>
</svg>