<?xml version="1.0" encoding="UTF-8"?>
<svg width="3300px" height="2200px" viewBox="0 0 3300 2200" version="1.1" xmlns="http://www.w3.org/2000/svg" xmlns:xlink="http://www.w3.org/1999/xlink">
    <!-- Generator: Sketch 61.2 (89653) - https://sketch.com -->
    <title>leaf.arrow.circlepath</title>
    <desc>Created with Sketch.</desc>
    <g id="Page-1" stroke="none" stroke-width="1" fill="none" fill-rule="evenodd">
        <g id="leaf.arrow.circlepath">
            <g id="Notes">
                <rect id="artboard" fill="#FFFFFF" fill-rule="nonzero" x="0" y="0" width="3300" height="2200"></rect>
                <line x1="263" y1="292" x2="3036" y2="292" id="Path" stroke="#000000" stroke-width="0.5"></line>
                <text id="Weight/Scale-Variations" fill="#000000" font-family="Helvetica-Bold, Helvetica" font-size="13" font-weight="bold">
                    <tspan x="263" y="322">Weight/Scale Variations</tspan>
                </text>
                <text id="Ultralight" fill="#000000" font-family="Helvetica" font-size="13" font-weight="normal">
                    <tspan x="533.711" y="322">Ultralight</tspan>
                </text>
                <text id="Thin" fill="#000000" font-family="Helvetica" font-size="13" font-weight="normal">
                    <tspan x="843.422" y="322">Thin</tspan>
                </text>
                <text id="Light" fill="#000000" font-family="Helvetica" font-size="13" font-weight="normal">
                    <tspan x="1138.63" y="322">Light</tspan>
                </text>
                <text id="Regular" fill="#000000" font-family="Helvetica" font-size="13" font-weight="normal">
                    <tspan x="1426.84" y="322">Regular</tspan>
                </text>
                <text id="Medium" fill="#000000" font-family="Helvetica" font-size="13" font-weight="normal">
                    <tspan x="1723.06" y="322">Medium</tspan>
                </text>
                <text id="Semibold" fill="#000000" font-family="Helvetica" font-size="13" font-weight="normal">
                    <tspan x="2015.77" y="322">Semibold</tspan>
                </text>
                <text id="Bold" fill="#000000" font-family="Helvetica" font-size="13" font-weight="normal">
                    <tspan x="2326.48" y="322">Bold</tspan>
                </text>
                <text id="Heavy" fill="#000000" font-family="Helvetica" font-size="13" font-weight="normal">
                    <tspan x="2618.19" y="322">Heavy</tspan>
                </text>
                <text id="Black" fill="#000000" font-family="Helvetica" font-size="13" font-weight="normal">
                    <tspan x="2917.4" y="322">Black</tspan>
                </text>
                <line x1="263" y1="1903" x2="3036" y2="1903" id="Path" stroke="#000000" stroke-width="0.5"></line>
                <g id="Group" transform="translate(264.000000, 1918.000000)" fill="#000000" fill-rule="nonzero">
                    <path d="M8.24805,15.830078 C12.5547,15.830078 16.1387,12.25586 16.1387,7.94922 C16.1387,3.6426 12.5449,0.0684 8.23828,0.0684 C3.94141,0.0684 0.36719,3.6426 0.36719,7.94922 C0.36719,12.25586 3.95117,15.830078 8.24805,15.830078 Z M8.24805,14.345703 C4.70312,14.345703 1.87109,11.50391 1.87109,7.94922 C1.87109,4.3945 4.69336,1.5527 8.23828,1.5527 C11.793,1.5527 14.6348,4.3945 14.6445252,7.94922 C14.6543,11.50391 11.8027,14.345703 8.24805,14.345703 Z M8.22852,11.57227 C8.69727,11.57227 8.9707,11.25977 8.9707,10.74219 L8.9707,8.68164 L11.1973,8.68164 C11.6953,8.68164 12.0371,8.42773 12.0371,7.95898 C12.0371,7.48047 11.7148,7.2168 11.1973,7.2168 L8.9707,7.2168 L8.9707,4.9902 C8.9707,4.4727 8.69727,4.1504 8.22852,4.1504 C7.75977,4.1504 7.50586,4.4922 7.50586,4.9902 L7.50586,7.2168 L5.29883,7.2168 C4.78125,7.2168 4.44922,7.48047 4.44922,7.95898 C4.44922,8.42773 4.80078,8.68164 5.29883,8.68164 L7.50586,8.68164 L7.50586,10.74219 C7.50586,11.24023 7.75977,11.57227 8.22852,11.57227 Z" id="Shape"></path>
                </g>
                <g id="Group" transform="translate(282.506000, 1915.000000)" fill="#000000" fill-rule="nonzero">
                    <path d="M10.709,20.91016 C16.1582,20.91016 20.6699,16.39844 20.6699,10.94922 C20.6699,5.5098 16.1484,0.9883 10.6992,0.9883 C5.25977,0.9883 0.74805,5.5098 0.74805,10.94922 C0.74805,16.39844 5.26953,20.91016 10.709,20.91016 Z M10.709,19.25 C6.09961,19.25 2.41797,15.55859 2.41797,10.94922 C2.41797,6.3496 6.08984,2.6484 10.6992,2.6484 C15.3086,2.6484 19,6.3496 19.009819,10.94922 C19.0195,15.55859 15.3184,19.25 10.709,19.25 Z M10.6895,15.58789 C11.207,15.58789 11.5195,15.22656 11.5195,14.66016 L11.5195,11.76953 L14.5762,11.76953 C15.123,11.76953 15.5039,11.48633 15.5039,10.96875 C15.5039,10.44141 15.1426,10.13867 14.5762,10.13867 L11.5195,10.13867 L11.5195,7.0723 C11.5195,6.4961 11.207,6.1445 10.6895,6.1445 C10.1719,6.1445 9.8789,6.5156 9.8789,7.0723 L9.8789,10.13867 L6.83203,10.13867 C6.26562,10.13867 5.89453,10.44141 5.89453,10.96875 C5.89453,11.48633 6.28516,11.76953 6.83203,11.76953 L9.8789,11.76953 L9.8789,14.66016 C9.8789,15.20703 10.1719,15.58789 10.6895,15.58789 Z" id="Shape"></path>
                </g>
                <g id="Group" transform="translate(306.924000, 1913.000000)" fill="#000000" fill-rule="nonzero">
                    <path d="M12.9707,25.67383 C19.9336,25.67383 25.6953,19.921875 25.6953,12.95898 C25.6953,5.9961 19.9238,0.2441 12.9609,0.2441 C6.00781,0.2441 0.25586,5.9961 0.25586,12.95898 C0.25586,19.921875 6.01758,25.67383 12.9707,25.67383 Z M12.9707,23.85742 C6.93555,23.85742 2.08203,18.99414 2.08203,12.95898 C2.08203,6.9238 6.92578,2.0605 12.9609,2.0605 C19.0059,2.0605 23.8594,6.9238 23.8691148,12.95898 C23.8789,18.99414 19.0156,23.85742 12.9707,23.85742 Z M12.9512,18.93555 C13.5176,18.93555 13.8691,18.54492 13.8691,17.93945 L13.8691,13.86719 L18.1074,13.86719 C18.6934,13.86719 19.1133,13.53516 19.1133,12.97852 C19.1133,12.40234 18.7227,12.06055 18.1074,12.06055 L13.8691,12.06055 L13.8691,7.8125 C13.8691,7.1973 13.5176,6.8066 12.9512,6.8066 C12.3848,6.8066 12.0625,7.2168 12.0625,7.8125 L12.0625,12.06055 L7.83398,12.06055 C7.21875,12.06055 6.80859,12.40234 6.80859,12.97852 C6.80859,13.53516 7.23828,13.86719 7.83398,13.86719 L12.0625,13.86719 L12.0625,17.93945 C12.0625,18.52539 12.3848,18.93555 12.9512,18.93555 Z" id="Shape"></path>
                </g>
                <text id="Design-Variations" fill="#000000" font-family="Helvetica-Bold, Helvetica" font-size="13" font-weight="bold">
                    <tspan x="263" y="1953">Design Variations</tspan>
                </text>
                <text id="Symbols-are-supported-in-up-to-nine-weights-and-three-scales." fill="#000000" font-family="Helvetica" font-size="13" font-weight="normal">
                    <tspan x="263" y="1971">Symbols are supported in up to nine weights and three scales.</tspan>
                </text>
                <text id="For-optimal-layout-with-text-and-other-symbols,-vertically-align" fill="#000000" font-family="Helvetica" font-size="13" font-weight="normal">
                    <tspan x="263" y="1989">For optimal layout with text and other symbols, vertically align</tspan>
                </text>
                <text id="symbols-with-the-adjacent-text." fill="#000000" font-family="Helvetica" font-size="13" font-weight="normal">
                    <tspan x="263" y="2007">symbols with the adjacent text.</tspan>
                </text>
                <rect id="Rectangle" fill="#00AEEF" fill-rule="nonzero" opacity="0.4" x="776" y="1919" width="3" height="14"></rect>
                <g id="Group" transform="translate(779.000000, 1918.000000)" fill="#000000" fill-rule="nonzero">
                    <path d="M10.5273,15 L12.373,15 L7.17773,0.9082 L5.43945,0.9082 L0.244141,15 L2.08984,15 L3.50586,10.9668 L9.11133,10.9668 L10.5273,15 Z M6.2793,3.0469 L6.33789,3.0469 L8.59375,9.47266 L4.02344,9.47266 L6.2793,3.0469 Z" id="Shape"></path>
                </g>
                <rect id="Rectangle" fill="#00AEEF" fill-rule="nonzero" opacity="0.4" x="791.617" y="1919" width="3" height="14"></rect>
                <text id="Margins" fill="#000000" font-family="Helvetica-Bold, Helvetica" font-size="13" font-weight="bold">
                    <tspan x="776" y="1953">Margins</tspan>
                </text>
                <text id="Leading-and-trailing-margins-on-the-left-and-right-side-of-each-symbol" fill="#000000" font-family="Helvetica" font-size="13" font-weight="normal">
                    <tspan x="776" y="1971">Leading and trailing margins on the left and right side of each symbol</tspan>
                </text>
                <text id="can-be-adjusted-by-modifying-the-width-of-the-blue-rectangles." fill="#000000" font-family="Helvetica" font-size="13" font-weight="normal">
                    <tspan x="776" y="1989">can be adjusted by modifying the width of the blue rectangles.</tspan>
                </text>
                <text id="Modifications-are-automatically-applied-proportionally-to-all" fill="#000000" font-family="Helvetica" font-size="13" font-weight="normal">
                    <tspan x="776" y="2007">Modifications are automatically applied proportionally to all</tspan>
                </text>
                <text id="scales-and-weights." fill="#000000" font-family="Helvetica" font-size="13" font-weight="normal">
                    <tspan x="776" y="2025">scales and weights.</tspan>
                </text>
                <g id="Group" transform="translate(1291.000000, 1915.000000)" fill="#000000" fill-rule="nonzero">
                    <path d="M0.83203,21.11523 L2.375,22.6582 C3.22461,23.48828 4.19141,23.41992 5.06055,22.46289 L15.2754,11.33984 C15.7051,11.63281 16.0957,11.62305 16.5645,11.52539 L17.6094,11.31055 L18.3027,12.00391 L18.2539,12.52148 C18.1855,13.04883 18.3516,13.46875 18.8496,13.9668 L19.6602,14.77734 C20.168,15.28516 20.8223,15.31445 21.3008,14.83594 L24.5527,11.58398 C25.0312,11.10547 25.0117,10.45117 24.5039,9.94336 L23.6836,9.12305 C23.1855,8.625 22.7754,8.44922 22.2383,8.52734 L21.7109,8.58594 L21.0566,7.9219 L21.3398,6.7793 C21.4863,6.2129 21.3398,5.7441 20.7148,5.1387 L18.3027,2.7461 C14.7578,-0.7793 10.2266,-0.6719 7.11133,2.4629 C6.69141,2.8926 6.64258,3.4785 6.91602,3.9082 C7.15039,4.2793 7.62891,4.5039 8.2734,4.3379 C9.7871,3.957 11.3008,4.0742 12.7852,5.0801 L12.1602,6.6621 C11.9258,7.248 11.9453,7.7266 12.1797,8.16602 L1.01758,18.439453 C0.08008,19.30859 -0.02734,20.25586 0.83203,21.11523 Z M8.6738,2.8535 C11.3398,0.8613 14.6504,1.1738 17.0527,3.5859 L19.6797,6.1934 C19.9141,6.4277 19.9434,6.6133 19.8848,6.9062 L19.5039,8.46875 L21.0762,10.04102 L22.043,9.95312 C22.3262,9.92383 22.4141,9.94336 22.6387,10.16797 L23.2637,10.79297 L20.5098,13.53711 L19.8848,12.92188 C19.6602,12.69727 19.6406,12.59961 19.6699,12.31641 L19.7578,11.35938 L18.1953,9.79688 L16.5742,10.10938 C16.291,10.16797 16.1445,10.16797 15.9102,9.92383 L13.7324,7.7461 C13.5078,7.5117 13.4785,7.375 13.6055,7.0527 L14.5527,4.7773 C12.9512,3.2441 10.8418,2.3945 8.8008,3.0488 C8.7129,3.0781 8.6445,3.0586 8.6152,3.0195 C8.5859,2.9707 8.5859,2.9219 8.6738,2.8535 Z M2.10156,20.41211 C1.61328,19.91406 1.78906,19.61133 2.12109,19.30859 L13.0781,9.19141 L14.3086,10.42188 L4.15234,21.34961 C3.84961,21.68164 3.46875,21.7793 3.06836,21.37891 L2.10156,20.41211 Z" id="Shape"></path>
                </g>
                <text id="Exporting" fill="#000000" font-family="Helvetica-Bold, Helvetica" font-size="13" font-weight="bold">
                    <tspan x="1289" y="1953">Exporting</tspan>
                </text>
                <text id="Symbols-should-be-outlined-when-exporting-to-ensure-the" fill="#000000" font-family="Helvetica" font-size="13" font-weight="normal">
                    <tspan x="1289" y="1971">Symbols should be outlined when exporting to ensure the</tspan>
                </text>
                <text id="design-is-preserved-when-submitting-to-Xcode." fill="#000000" font-family="Helvetica" font-size="13" font-weight="normal">
                    <tspan x="1289" y="1989">design is preserved when submitting to Xcode.</tspan>
                </text>
                <text id="template-version" fill="#000000" font-family="Helvetica" font-size="13" font-weight="normal">
                    <tspan x="2952" y="1933">Template v.1.0</tspan>
                </text>
                <text id="Generated-from-leaf.arrow.circlepath" fill="#000000" font-family="Helvetica" font-size="13" font-weight="normal">
                    <tspan x="2825" y="1951">Generated from leaf.arrow.circlepath</tspan>
                </text>
                <text id="Typeset-at-100-points" fill="#000000" font-family="Helvetica" font-size="13" font-weight="normal">
                    <tspan x="2912" y="1969">Typeset at 100 points</tspan>
                </text>
                <text id="Small" fill="#000000" font-family="Helvetica" font-size="13" font-weight="normal">
                    <tspan x="263" y="726">Small</tspan>
                </text>
                <text id="Medium" fill="#000000" font-family="Helvetica" font-size="13" font-weight="normal">
                    <tspan x="263" y="1156">Medium</tspan>
                </text>
                <text id="Large" fill="#000000" font-family="Helvetica" font-size="13" font-weight="normal">
                    <tspan x="263" y="1586">Large</tspan>
                </text>
            </g>
            <g id="Guides" transform="translate(263.000000, 625.000000)">
                <g id="H-reference" transform="translate(76.000000, 0.000000)" fill="#27AAE1" fill-rule="nonzero">
                    <path d="M54.9316,71 L57.666,71 L30.5664,0.541 L28.0762,0.541 L0.976562,71 L3.66211,71 L12.9395,46.5371 L45.7031,46.5371 L54.9316,71 Z M29.1992,3.9102 L29.4434,3.9102 L44.8242,44.291 L13.8184,44.291 L29.1992,3.9102 Z" id="Shape"></path>
                </g>
                <line x1="0" y1="71" x2="2773" y2="71" id="Baseline-S" stroke="#27AAE1" stroke-width="0.577"></line>
                <line x1="0" y1="0.541" x2="2773" y2="0.541" id="Capline-S" stroke="#27AAE1" stroke-width="0.577"></line>
                <g id="H-reference" transform="translate(76.000000, 430.000000)" fill="#27AAE1" fill-rule="nonzero">
                    <path d="M54.9316,71 L57.666,71 L30.5664,0.541 L28.0762,0.541 L0.976562,71 L3.66211,71 L12.9395,46.5371 L45.7031,46.5371 L54.9316,71 Z M29.1992,3.9102 L29.4434,3.9102 L44.8242,44.291 L13.8184,44.291 L29.1992,3.9102 Z" id="Shape"></path>
                </g>
                <line x1="0" y1="501" x2="2773" y2="501" id="Baseline-M" stroke="#27AAE1" stroke-width="0.577"></line>
                <line x1="0" y1="430.54" x2="2773" y2="430.54" id="Capline-M" stroke="#27AAE1" stroke-width="0.577"></line>
                <g id="H-reference" transform="translate(76.000000, 860.000000)" fill="#27AAE1" fill-rule="nonzero">
                    <path d="M54.9316,71 L57.666,71 L30.5664,0.541 L28.0762,0.541 L0.976562,71 L3.66211,71 L12.9395,46.5371 L45.7031,46.5371 L54.9316,71 Z M29.1992,3.9102 L29.4434,3.9102 L44.8242,44.291 L13.8184,44.291 L29.1992,3.9102 Z" id="Shape"></path>
                </g>
                <line x1="0" y1="931" x2="2773" y2="931" id="Baseline-L" stroke="#27AAE1" stroke-width="0.577"></line>
                <line x1="0" y1="860.54" x2="2773" y2="860.54" id="Capline-L" stroke="#27AAE1" stroke-width="0.577"></line>
                <rect id="left-margin" fill="#00AEEF" fill-rule="nonzero" opacity="0.4" x="1128.3" y="405.79" width="8.74023" height="119.336"></rect>
                <rect id="right-margin" fill="#00AEEF" fill-rule="nonzero" opacity="0.4" x="1236.65" y="405.79" width="8.74023" height="119.336"></rect>
            </g>
            <g id="Leaf" transform="translate(506.000000, 630.000000)" fill="#000000">
                <g id="Symbols" transform="translate(-13.000000, -11.000000)">
                    <g id="Black-L" transform="translate(2379.050000, 854.000000)" fill-rule="nonzero">
                        <path d="M0.835350267,4.2590833 C0.468360559,8.49648405 0.1934,12.6418207 0.1934,16.5105878 C0.1934,57.9633883 25.7793815,86.7039866 58.9771127,86.7039866 C73.558474,86.7039866 87.1308953,79.4265843 92.9084477,67.3593967 C97.6778114,73.8997203 100.245237,81.4533149 104.187465,92.8757898 C104.92182,94.7181281 106.664739,95.6392972 108.407659,94.8102488 L111.249294,93.4284762 C114.000777,92.0467225 115.1934,90.6649687 115.1934,87.5329408 C115.1934,79.3345202 104.555582,67.1750799 98.8685559,62.2007891 C75.3008299,41.3822304 38.8016939,53.7259876 31.0982907,30.236061 C30.9149837,29.7755519 30.9149837,29.4071068 30.9149837,29.0386618 C30.9149837,28.1174549 31.5569339,27.472629 32.1988842,27.472629 C33.1159828,27.472629 33.5744382,27.841074 34.124735,28.4859 C51.0904025,45.527567 74.7505332,32.4469198 96.5766545,49.4885868 C100.153208,52.1599547 103.454988,51.8835738 103.547017,47.277728 C103.547017,46.4487739 103.637168,45.527567 103.637168,44.6063601 C103.637168,18.4450656 85.2968858,7.20683214 59.1604198,7.20683214 C50.4484522,7.20683214 41.6446433,9.50975502 33.4827847,9.50975502 C24.2203326,9.50975502 15.3248702,8.58854814 9.63915915,2.8773673 C5.51230917,-1.17590526 1.20215216,-0.807271579 0.835350267,4.2590833 Z" id="Shape"></path>
                    </g>
                    <g id="Heavy-L" transform="translate(2081.390000, 853.000000)" fill-rule="nonzero">
                        <path d="M1.31226861,4.12479743 C0.855827363,8.75175202 0.582,13.2862206 0.582,17.6355276 C0.582,59.1858223 26.3191554,88.7057319 59.8137559,88.7057319 C74.5075378,88.7057319 88.1974106,81.580328 94.038438,69.7352939 C98.9669567,76.4905643 101.52243,84.356425 105.628905,96.2940398 C106.268148,98.0522788 107.911112,98.7926029 109.462489,98.0522788 L112.65683,96.4791256 C115.486691,95.0910202 116.582,93.610391 116.582,90.4641036 C116.582,82.0429477 105.81208,69.5501324 100.153293,64.3678826 C76.4241424,42.9914813 39.9178148,55.5767826 31.7037415,31.6090669 C31.5213145,31.1464472 31.5213145,30.7761241 31.5213145,30.498666 C31.5213145,29.5732372 32.1601828,28.8327804 32.799051,28.8327804 C33.7115596,28.8327804 34.1680009,29.2031036 34.8068691,29.8508848 C52.1473373,47.4332743 76.3329289,33.5524105 98.5105155,52.0602289 C101.614017,54.4661922 104.716771,54.1887341 104.716771,50.1168852 C104.808358,49.0064843 104.899945,47.7109219 104.899945,46.3228734 C104.899945,19.7640328 86.3722064,8.38161839 59.9961828,8.38161839 C51.3260422,8.38161839 42.5645011,10.3249621 34.4418282,10.3249621 C24.4937642,10.3249621 15.2759688,9.12207516 9.25232758,2.73674896 C5.69294568,-0.872290776 1.67730945,-0.409481606 1.31226861,4.12479743 Z" id="Shape"></path>
                    </g>
                    <g id="Bold-L" transform="translate(1783.880000, 852.000000)" fill-rule="nonzero">
                        <path d="M1.64750721,3.80660418 C1.09500061,8.7671079 0.7266,13.7277998 0.7266,18.4126886 C0.7266,59.7504077 27.1609002,89.7892331 61.4244207,89.7892331 C76.529789,89.7892331 90.4379025,82.8996132 96.5167955,71.3251045 C101.674781,78.2147244 104.345827,86.2986128 108.582151,98.6999097 C109.134847,100.261564 110.609958,100.904603 111.990753,100.261564 L115.582329,98.5161978 C118.530666,97.138255 119.7266,95.5766191 119.7266,92.3614444 C119.7266,83.8182668 108.582151,71.1412986 102.872225,65.9051799 C78.6483283,44.0420519 41.5294672,56.7190201 32.6872866,32.6513492 C32.5031806,32.1001194 32.410939,31.7326956 32.410939,31.4570807 C32.410939,30.5384271 33.1479289,29.8035794 33.8847301,29.8035794 C34.7135843,29.8035794 35.2662795,30.2628122 35.8189748,30.8140419 C53.8717366,48.8189378 79.0167289,34.2128533 101.951129,54.1468653 C104.530122,56.1679785 107.386217,55.8003665 107.476761,52.5853611 C107.569191,51.1154777 107.661621,49.4619765 107.661621,47.6246692 C107.661621,20.8010375 88.7798168,9.31833769 61.6087154,9.31833769 C52.8585877,9.31833769 44.0164072,10.9718389 35.7267332,10.9718389 C25.0425495,10.9718389 15.18722,9.41014661 8.73973775,2.52052675 C5.79234421,-0.510860832 2.01609646,-0.143437016 1.64750721,3.80660418 Z" id="Shape"></path>
                    </g>
                    <g id="Semibold-L" transform="translate(1486.970000, 851.000000)" fill-rule="nonzero">
                        <path d="M1.42528149,3.83835736 C0.873690261,9.11530614 0.5059,14.3013244 0.5059,19.214365 C0.5059,60.1567423 27.1722946,90.3629884 61.6549385,90.3629884 C76.8271813,90.3629884 90.8960533,83.6302204 96.9650634,72.4394368 C102.298305,79.3540658 104.964925,87.6335835 109.378032,100.280149 C109.837534,101.735875 111.217925,102.281775 112.413761,101.644889 L116.366612,99.7342494 C119.310064,98.4604961 120.5059,96.8227973 120.5059,93.6384047 C120.5059,85.0860396 109.287638,72.1664591 103.401675,66.9804408 C79.1260117,44.9625956 41.9767472,57.6091984 32.6895252,33.498648 C32.5055359,32.9528788 32.4136354,32.679901 32.4136354,32.4069233 C32.4136354,31.4061291 33.149216,30.6783126 33.8849848,30.6783126 C34.7124658,30.6783126 35.2642454,31.1331513 35.8160249,31.6791068 C54.2066679,49.8756361 79.7696917,34.8635367 103.125786,55.6985404 C105.332716,57.5182679 107.907247,57.0632429 108.091802,54.333838 C108.184079,52.605041 108.36675,50.6945694 108.36675,48.6018642 C108.36675,21.7619089 89.240903,10.2981476 61.8387395,10.2981476 C53.1031088,10.2981476 44.1836771,11.7537805 35.9998259,11.7537805 C24.7815638,11.7537805 14.574772,9.9342394 7.86208186,2.5645854 C5.37945052,0.017041486 1.79326007,0.380949712 1.42528149,3.83835736 Z" id="Shape"></path>
                    </g>
                    <g id="Medium-L" transform="translate(1189.870000, 851.000000)" fill-rule="nonzero">
                        <path d="M1.53308921,3.13583527 C0.985499861,8.62646253 0.5293,14.1170898 0.5293,19.3331576 C0.5293,60.4211236 27.1757825,91.2600561 61.7615629,91.2600561 C76.8185879,91.2600561 90.8718237,84.579921 97.0773379,73.4155643 C102.461281,80.553361 105.107652,88.9723103 109.487806,101.96677 C109.943819,103.339417 111.22215,103.796966 112.317329,103.247904 L116.423314,101.23468 C119.434121,99.9535461 120.5293,98.2148444 120.5293,95.0120003 C120.5293,86.3185478 109.304653,73.1410049 103.556273,67.8334797 C79.2825531,45.4134965 42.2329944,58.3164799 32.8337073,33.7918531 C32.5599127,33.3341915 32.4685232,32.9681747 32.4685232,32.6936152 C32.4685232,31.6870221 33.1987046,30.9549884 33.9286991,30.9549884 C34.8412858,30.9549884 35.2974856,31.4124626 35.9362776,32.0530389 C54.4610569,50.6295643 80.1949528,34.9813609 103.647662,56.7607679 C105.564038,58.4079373 108.02819,57.8590058 108.119767,55.5710726 C108.301051,53.7409885 108.392627,51.5447001 108.392627,49.165497 C108.392627,21.9869201 89.320632,10.3652767 61.8527655,10.3652767 C53.2748625,10.3652767 44.422978,11.6462419 36.2100722,11.6462419 C24.7120042,11.6462419 14.3087411,9.63305567 7.46462185,1.94632743 C5.27463825,-0.341418308 1.89808647,0.024598521 1.53308921,3.13583527 Z" id="Shape"></path>
                    </g>
                    <g id="Regular-L" transform="translate(892.970000, 850.000000)" fill-rule="nonzero">
                        <path d="M1.44328122,3.2809515 C0.714956398,9.05204862 0.2598,14.8231457 0.2598,20.3192143 C0.2598,61.5410418 27.2094966,92.777982 61.9891511,92.777982 C77.1939107,92.777982 91.3061831,86.2741008 97.588311,75.1900373 C103.05112,82.5182538 105.782618,91.1291239 110.243561,104.594867 C110.607164,105.785707 111.791204,106.152118 112.701144,105.6941 L117.163206,103.587223 C120.167126,102.21315 121.2598,100.472684 121.2598,97.2665569 C121.2598,88.3809021 109.971325,75.0067475 104.143794,69.60223 C79.7432341,46.7011314 42.5962441,59.8006326 32.8542936,34.9758349 C32.5813117,34.5178917 32.4901312,34.1514997 32.4901312,33.8766587 C32.4901312,32.9605848 33.3096365,32.1362495 34.0379613,32.1362495 C34.8574666,32.1362495 35.403617,32.5941927 35.9499538,33.2354257 C54.796524,52.1973876 80.9269017,35.9836476 104.781125,58.8845586 C106.237774,60.2585758 108.513929,59.7088939 108.696104,57.7851948 C108.878092,55.7699447 109.060266,53.2967514 109.060266,50.6400806 C109.060266,23.1589873 89.758353,11.4336908 62.1713256,11.4336908 C53.5218623,11.4336908 44.6904111,12.5330546 36.4051102,12.5330546 C24.4779988,12.5330546 13.8257355,10.2427759 6.72410234,2.09003659 C4.9940978,0.166525154 1.71644964,0.532917218 1.44328122,3.2809515 Z" id="Shape"></path>
                    </g>
                    <g id="Light-L" transform="translate(595.180000, 850.000000)" fill-rule="nonzero">
                        <path d="M1.93148353,2.4977484 C1.10675137,8.75820237 0.6484,14.8346307 0.6484,20.634832 C0.6484,63.2612776 28.2345081,94.8397744 63.8854982,94.8397744 C79.465691,94.8397744 93.8543953,88.2110806 100.269813,76.8869049 C105.952094,84.4362925 108.701451,93.2746138 113.283839,107.084587 C113.650407,108.189363 114.749362,108.557641 115.57522,108.189363 L120.340798,105.887723 C123.456536,104.506739 124.6484,102.665427 124.6484,99.3510421 C124.6484,90.2364939 112.91727,76.7028793 107.051799,71.0868922 C82.2152361,47.6100484 44.8228111,60.6834103 34.008384,35.7336072 C33.8250059,35.1811532 33.6418155,34.9049262 33.6418155,34.6286992 C33.6418155,33.6159926 34.4665477,32.7875002 35.1996847,32.7875002 C36.0246045,32.7875002 36.5745511,33.3397656 37.2160928,33.8922196 C56.5537532,53.4102497 83.5899148,36.5620997 108.059909,60.4991961 C109.342993,61.7881297 111.450809,61.3278771 111.634187,59.5786908 C111.90916,57.3690634 112.000755,54.6991833 112.000755,51.7530762 C112.000755,23.6729519 92.2965262,11.6122966 63.9772811,11.6122966 C55.1790745,11.6122966 46.1058946,12.7170161 37.6742565,12.7170161 C25.2101774,12.7170161 13.9373989,10.4153758 6.69724916,1.48504177 C5.13919235,-0.356345856 2.20645681,0.01208251 1.93148353,2.4977484 Z" id="Shape"></path>
                    </g>
                    <g id="Thin-L" transform="translate(297.693000, 849.000000)" fill-rule="nonzero">
                        <path d="M1.95655687,2.36001831 C0.955127408,9.10023174 0.5,15.5671655 0.5,21.7608197 C0.5,65.4808962 28.5405842,96.904658 64.7747669,96.904658 C80.5246737,96.904658 95.1821628,90.1644819 101.646053,78.7790745 C107.472654,86.3389402 110.294966,95.3562352 114.93816,109.565246 C115.3023,110.476097 116.212554,110.840427 117.032007,110.476097 L122.129584,108.10791 C125.316035,106.650574 126.5,104.737822 126.5,101.458821 C126.5,92.1682838 114.573835,78.5057949 108.565258,72.7674824 C83.5289621,48.9947665 46.4755127,61.8374166 34.4581728,37.1538309 C34.1850218,36.5162406 34.0030454,36.242961 34.0030454,35.9698679 C34.0030454,34.8767494 34.9133002,34.0570971 35.6417651,34.0570971 C36.4610317,34.0570971 37.0073337,34.6034698 37.644624,35.2410601 C57.4004351,55.0061721 85.0766936,37.7003901 110.112989,62.5662244 C111.205407,63.6591564 113.02629,63.2948458 113.208266,61.7463856 C113.481417,59.3782731 113.66358,56.4636013 113.66358,53.2756499 C113.66358,24.9487711 93.6346178,12.6524938 64.8657551,12.6524938 C55.9436917,12.6524938 46.7486638,13.7454257 38.0997514,13.7454257 C25.080982,13.7454257 13.2456184,11.3773132 6.05344935,1.72242803 C4.77886886,-0.00828074972 2.22970789,0.356216443 1.95655687,2.36001831 Z" id="Shape"></path>
                    </g>
                    <g id="Ultralight-L" transform="translate(0.616000, 849.000000)" fill-rule="nonzero">
                        <path d="M1.94328974,1.88366887 C0.83764015,8.98120953 0.377,15.8021957 0.377,22.2543166 C0.377,67.235863 29.1255876,99.220536 66.1672076,99.220536 C82.3845338,99.220536 97.3116524,92.3073714 103.946116,80.5089701 C109.935381,88.4359855 112.791879,97.561341 117.583216,112.217202 C117.951766,113.138968 118.781144,113.415485 119.518244,113.138968 L124.955534,110.650242 C128.180581,109.083263 129.377,107.147589 129.377,103.737115 C129.377,94.2430643 117.122576,80.2324156 111.041031,74.4255256 C85.4252116,49.9990595 48.0150418,63.0879227 35.2071321,38.0164144 C34.9306725,37.3711834 34.7463032,37.0946289 34.7463032,36.7259524 C34.7463032,35.7118562 35.6677722,34.7902595 36.4050607,34.7902595 C37.2342507,34.7902595 37.7871698,35.3431798 38.4321793,35.9884108 C58.7037426,56.3592472 87.1758707,38.3850908 112.883969,64.193952 C113.897528,65.2078594 115.648187,64.9314937 115.740466,63.4565991 C116.109016,60.9679859 116.201107,57.833953 116.201107,54.4235543 C116.201107,25.4804714 95.8374529,12.9447173 66.3515769,12.9447173 C57.2293545,12.9447173 47.7385822,13.9586247 38.8928194,13.9586247 C25.34781,13.9586247 13.0926307,11.5621334 5.72125606,1.33074859 C4.61541777,-0.328389792 2.3118396,-0.0520240404 1.94328974,1.88366887 Z" id="Shape"></path>
                    </g>
                    <g id="Black-M" transform="translate(2385.970000, 429.000000)" fill-rule="nonzero">
                        <path d="M0.995729333,4.38648825 C0.812313867,7.219398 0.7207,10.1436376 0.7207,12.7937005 C0.7207,45.2345129 20.2457176,66.5265331 45.7290157,66.5265331 C56.9122904,66.5265331 67.2706648,60.7693837 71.6707587,51.0829921 C75.2457645,55.8347645 77.1707821,61.409067 80.1957293,69.7249494 C80.745788,71.3698225 82.3039747,72.1923526 83.8623491,71.4611524 L85.6957528,70.5474795 C87.8039981,69.4507727 88.7207,68.4455829 88.7207,66.0696967 C88.7207,59.9470408 80.5623725,50.9001453 76.1622787,47.1535627 C58.1040216,31.5269877 30.1456472,40.7567301 24.2789805,23.1199626 C24.1873667,22.8457859 24.1873667,22.4802793 24.1873667,22.2061026 C24.1873667,21.5664193 24.6456237,21.1093958 25.1040685,21.1093958 C25.8373549,21.1093958 26.2039981,21.2922426 26.6624429,21.749079 C39.3122904,34.4512273 57.1873197,25.1303422 73.6873901,36.8273006 C76.9873667,39.2031868 79.8290861,39.2031868 79.8290861,34.816921 C79.8290861,34.5427443 79.8290861,34.1772377 79.8290861,33.903061 C79.8290861,14.073067 65.804092,5.39167807 45.8206296,5.39167807 C39.0374488,5.39167807 32.0706648,7.58490456 25.7457411,7.58490456 C19.145788,7.58490456 12.6374488,7.219398 8.69579973,3.28996858 C4.9373784,-0.456801149 1.36237253,-0.0912945916 0.995729333,4.38648825 Z" id="Shape"></path>
                    </g>
                    <g id="Heavy-M" transform="translate(2089.190000, 429.000000)" fill-rule="nonzero">
                        <path d="M0.810959303,3.30183184 C0.536521187,6.53941603 0.3535,9.86983281 0.3535,12.8300559 C0.3535,45.3925102 20.1109837,67.6865426 45.8139397,67.6865426 C57.1561954,67.6865426 67.5837199,61.9511932 72.065772,52.4229691 C75.8159267,57.5107638 77.7368062,63.3387563 80.8468551,72.2194257 C81.395544,73.699632 82.7677345,74.4396404 84.1397378,73.7920856 L86.3350554,72.682073 C88.4387687,71.6643246 89.3535,70.554312 89.3535,68.1491899 C89.3535,61.7660963 81.1212932,52.2378723 76.730658,48.445187 C58.4367818,32.1638652 30.355487,41.6920892 24.2271808,23.5607463 C24.1355765,23.1907421 24.0441596,22.8207379 24.0441596,22.6356411 C24.0441596,21.8956327 24.5930358,21.4331748 25.0503078,21.4331748 C25.7820179,21.4331748 26.147873,21.7107253 26.6053323,22.1731832 C39.6854463,35.4016388 57.9793225,25.3185031 74.9011954,38.4543156 C77.7368062,40.4896229 80.2979788,40.3969798 80.2979788,36.6967482 C80.3893958,36.0491935 80.3893958,35.4016388 80.3893958,34.6616304 C80.3893958,14.3100728 66.2117166,5.52185709 45.9053567,5.52185709 C39.2281743,5.52185709 32.3679707,7.37206759 26.056456,7.37206759 C18.8303974,7.37206759 11.9701938,6.72451286 7.67116288,2.28427291 C4.37828015,-1.04614387 1.08521009,-0.676139664 0.810959303,3.30183184 Z" id="Shape"></path>
                    </g>
                    <g id="Bold-M" transform="translate(1791.500000, 428.000000)" fill-rule="nonzero">
                        <path d="M1.42801311,3.08717708 C1.06403224,6.63086444 0.791,10.1745518 0.791,13.5364305 C0.791,45.1569968 20.8112522,67.6912235 46.7465197,67.6912235 C58.1216206,67.6912235 68.6778112,62.3301937 73.2278516,53.3346653 C77.1408789,58.5140725 79.1428668,64.5109674 82.3279323,73.6883044 C82.7830482,75.0512182 83.9659394,75.596272 85.149017,75.0512182 L87.6970695,73.7791157 C89.881141,72.7796333 90.791,71.5983421 90.791,69.2359459 C90.791,62.7846224 82.418881,53.1530428 77.9599756,49.2459241 C59.6686791,32.890401 31.3674428,42.4311694 24.9973117,24.1674926 C24.8152281,23.8948726 24.8152281,23.5314414 24.8152281,23.3498188 C24.8152281,22.6227702 25.3612926,22.0777164 25.8164085,22.0777164 C26.5443702,22.0777164 26.9083511,22.3503363 27.3632805,22.8953902 C40.8315044,36.3432771 59.6686791,25.6214037 76.8678466,39.9777758 C79.1428668,41.7041208 81.509022,41.5224982 81.5999706,38.5240507 C81.5999706,37.6153796 81.6909192,36.6158971 81.6909192,35.4346059 C81.6909192,15.1719642 67.3128364,6.44905577 46.8374683,6.44905577 C40.1944913,6.44905577 33.3694308,7.90296689 27.0902483,7.90296689 C19.3553288,7.90296689 12.0751523,6.90348441 7.43416332,1.9968833 C4.79516227,-0.638318963 1.70104535,-0.274701618 1.42801311,3.08717708 Z" id="Shape"></path>
                    </g>
                    <g id="Semibold-M" transform="translate(1494.500000, 427.000000)" fill-rule="nonzero">
                        <path d="M1.40388198,3.23699757 C1.0391761,7.12245404 0.7656,11.0077211 0.7656,14.7082641 C0.7656,46.6242159 21.008177,70.1216787 47.1773647,70.1216787 C58.6664403,70.1216787 69.4259175,64.8486134 73.9850211,55.8751945 C77.9969725,61.3331733 80.003135,67.6238312 83.2856747,77.3374723 C83.7415104,78.5401678 84.8358148,79.0026409 85.8388026,78.5401678 L88.6653199,77.0599127 C90.9448717,76.0423202 91.7656,74.8396248 91.7656,72.3419666 C91.7656,65.6812924 83.2856747,55.7825483 78.9088306,51.7121783 C60.39884,34.6902868 31.8587839,44.5888415 25.2025748,25.7168679 C25.0201285,25.3468515 25.0201285,25.0692918 25.0201285,24.8843784 C25.0201285,24.1441561 25.5672807,23.5892262 26.1142461,23.5892262 C26.7525281,23.5892262 27.1174207,23.8665964 27.5732564,24.329259 C41.4330136,38.3908298 60.6724161,27.0120201 78.2705486,42.5536565 C80.1853946,44.1263683 82.3738166,43.8488087 82.4649464,41.3511505 C82.5562629,40.2409119 82.6473927,38.853303 82.6473927,37.4656941 C82.6473927,16.5583461 68.0582237,7.67738393 47.359811,7.67738393 C40.7034151,7.67738393 33.8647597,8.88007935 27.5732564,8.88007935 C19.3669072,8.88007935 11.7986532,7.58492719 6.78371391,2.21940509 C4.59529188,-0.0933395547 1.67745808,0.276676853 1.40388198,3.23699757 Z" id="Shape"></path>
                    </g>
                    <g id="Medium-M" transform="translate(1197.300000, 427.000000)" fill-rule="nonzero">
                        <path d="M1.67446888,2.65469697 C1.30507901,6.71464537 0.9355,10.6823737 0.9355,14.5578821 C0.9355,46.2998981 21.6226568,70.1064573 48.4052193,70.1064573 C60.1341516,70.1064573 70.9395146,64.9391128 75.7417721,56.173109 C79.8977392,61.7095225 81.929478,68.1687031 85.3466653,78.0419141 C85.7160552,79.1491212 86.7319246,79.6104102 87.6554939,79.1491212 L90.7031022,77.672845 C93.0119308,76.6578579 93.9355,75.3660218 93.9355,72.8745696 C93.9355,66.13854 85.254176,56.080889 80.7288191,51.9285316 C61.8888008,34.673562 32.889899,44.7312129 25.9634134,25.7229292 C25.7786239,25.3538601 25.6863237,25.0770111 25.6863237,24.8001621 C25.6863237,24.154244 26.3328032,23.5085149 26.8867935,23.5085149 C27.533273,23.5085149 27.902852,23.877584 28.3645421,24.338873 C42.6793926,38.5488814 62.4429802,26.8303252 80.5442187,43.0703078 C82.2065677,44.5467729 84.2383066,44.0852949 84.3306068,42.0553207 C84.4230961,40.7634846 84.5153963,39.1947994 84.5153963,37.5338943 C84.5153963,16.5878563 69.7388557,7.63741245 48.4975195,7.63741245 C41.7558234,7.63741245 34.9216379,8.65239955 28.5493316,8.65239955 C19.8680076,8.65239955 12.0179527,7.26834341 6.75381605,1.54748986 C4.81437736,-0.39026432 1.95155857,-0.0211952822 1.67446888,2.65469697 Z" id="Shape"></path>
                    </g>
                    <g id="Regular-M" transform="translate(900.300000, 426.000000)" fill-rule="nonzero">
                        <path d="M1.73310941,2.7406449 C1.27595832,7.04492445 0.9102,11.2576755 0.9102,15.3788979 C0.9102,46.6079475 21.5767626,70.7855485 48.2788058,70.7855485 C59.9838213,70.7855485 70.8659274,65.7484779 75.6209728,57.414692 C79.8274745,62.9094052 81.930819,69.5033987 85.3142239,79.7604093 C85.6799822,80.6762573 86.6858644,81.042559 87.4175684,80.5847288 L90.7095806,79.0278059 C93.0871033,78.0204293 93.9102,76.7382795 93.9102,74.2655085 C93.9102,67.3969294 85.2228311,57.2314474 80.7419639,53.1102249 C61.9041929,35.6183335 33.0074125,45.7838155 25.874657,26.5517566 C25.7832643,26.1854549 25.6004787,26.0022102 25.6004787,25.7274371 C25.6004787,24.9948336 26.2404154,24.4452873 26.7891465,24.4452873 C27.5206631,24.4452873 27.8866087,24.8117766 28.3437598,25.2696068 C42.7920564,39.7393684 62.7272896,27.4676046 81.0163295,44.6849104 C82.2965773,45.8753441 84.1255562,45.3257977 84.2169489,43.7690624 C84.3997345,42.303668 84.4913145,40.4721594 84.4913145,38.5489347 C84.4913145,17.5767082 69.6770723,8.60184739 48.4617786,8.60184739 C41.7861742,8.60184739 35.019177,9.42597935 28.7095181,9.42597935 C19.656391,9.42597935 11.609146,7.77752787 6.12258386,1.7332683 C4.65936328,0.176345361 1.91608221,0.542647072 1.73310941,2.7406449 Z" id="Shape"></path>
                    </g>
                    <g id="Light-M" transform="translate(603.420000, 426.000000)" fill-rule="nonzero">
                        <path d="M1.36055661,2.07548715 C0.811365157,6.795621 0.4453,11.330384 0.4453,15.7728406 C0.4453,48.4426566 21.5869217,72.9682848 48.8605566,72.9682848 C60.8499871,72.9682848 71.924161,67.7854819 76.7748524,59.0859396 C81.0763523,64.9164033 83.2729306,71.6725841 86.7506433,82.3156775 C87.0252391,83.2412051 87.9404957,83.5188823 88.5811566,83.1487092 L92.1505261,81.4828354 C94.5300434,80.4648119 95.4453,78.9839298 95.4453,76.4850243 C95.4453,69.4513558 86.4762351,58.9932542 81.9916089,54.643483 C62.8634392,36.5963584 33.9424174,46.7767828 25.9800785,27.3414616 C25.8884216,26.9712885 25.7054828,26.6936112 25.7054828,26.5086194 C25.7054828,25.7680836 26.3461437,25.1202333 26.9868045,25.1202333 C27.6274654,25.1202333 27.9935306,25.4905959 28.4510652,25.953265 C43.2777349,40.9461296 63.8701652,28.0818078 82.5406129,46.3141138 C83.7304652,47.3321373 85.3778521,46.9619641 85.5609784,45.5737675 C85.6524479,43.9077041 85.8355742,41.8716572 85.8355742,39.7431143 C85.8355742,18.0865648 70.7343087,8.83166797 49.0434955,8.83166797 C42.2710089,8.83166797 35.3152086,9.66451012 28.8171303,9.66451012 C19.3903434,9.66451012 10.878813,7.90614038 5.29599135,1.242645 C4.01466958,-0.238237048 1.63515234,0.0394401829 1.36055661,2.07548715 Z" id="Shape"></path>
                    </g>
                    <g id="Thin-M" transform="translate(305.806000, 425.000000)" fill-rule="nonzero">
                        <path d="M1.64534214,2.07642675 C0.909051229,7.29313725 0.541,12.2352544 0.541,16.9027783 C0.541,50.582725 22.3494958,75.1103737 50.5072051,75.1103737 C62.8377694,75.1103737 74.2479228,69.8021946 79.3090512,61.016146 C83.8180086,66.8735117 85.9343503,73.8290632 89.615051,84.8116708 C89.8911365,85.5437947 90.6274274,85.8183692 91.2713758,85.5437947 L95.2283505,83.7132976 C97.6207777,82.6151118 98.541,81.1508641 98.541,78.5882431 C98.541,71.4495669 89.3391539,60.7415527 84.6460767,56.4400907 C65.0460767,37.952745 36.0602993,48.020104 26.9504189,28.8006345 C26.766299,28.3429165 26.5823676,28.0683232 26.5823676,27.8853859 C26.5823676,27.061606 27.3184701,26.4209508 27.8706412,26.4209508 C28.5147779,26.4209508 28.9747949,26.8786688 29.4348118,27.3361993 C44.80194,42.6202689 66.2423846,29.258165 85.7504189,48.386166 C86.6704527,49.2097584 88.1428461,48.9353526 88.2348118,47.7455107 C88.5108973,45.9150137 88.602863,43.7186421 88.602863,41.2474898 C88.602863,19.2822746 73.0518034,9.85557075 50.5991708,9.85557075 C43.6977863,9.85557075 36.5203162,10.6793507 29.8030515,10.6793507 C19.6809831,10.6793507 10.5711027,8.84885358 4.95799165,1.52724014 C3.94580366,0.154461051 1.82927353,0.428866921 1.64534214,2.07642675 Z" id="Shape"></path>
                    </g>
                    <g id="Ultralight-M" transform="translate(8.656000, 425.000000)" fill-rule="nonzero">
                        <path d="M1.66544998,1.62223696 C0.839596564,6.99485954 0.5645,12.0942726 0.5645,17.0114839 C0.5645,51.250134 22.5848149,75.654175 51.0278077,75.654175 C63.5059924,75.654175 74.9751139,70.3727466 80.1130684,61.4487737 C84.7006418,67.3676287 86.9027297,74.3793217 90.5727508,85.5797171 C90.7563365,86.2171437 91.4903031,86.4903159 92.0408721,86.2171437 L96.1697633,84.3959461 C98.6469477,83.2121005 99.5645,81.6642242 99.5645,79.1145177 C99.5645,71.9206228 90.2057675,61.1755642 85.5264952,56.8047719 C65.7997792,38.1373841 36.8981041,48.1540085 27.2640872,29.0313958 C26.9889906,28.4849769 26.8971038,28.3029615 26.8971038,28.0297521 C26.8971038,27.2101236 27.6312584,26.572697 28.1816394,26.572697 C28.7322084,26.572697 29.2827773,27.0281083 29.7414595,27.4833331 C45.3392843,42.9635877 67.0843147,29.3046053 86.8110308,48.8824428 C87.6366963,49.7020712 89.0131187,49.5198694 89.1048175,48.3362103 C89.380102,46.4239304 89.4718009,44.1474333 89.4718009,41.5977268 C89.4718009,19.4699963 73.7822772,9.90878324 51.2113934,9.90878324 C44.1464476,9.90878324 36.8981041,10.7282252 30.1084428,10.7282252 C19.7404592,10.7282252 10.3819147,8.81613178 4.69320334,1.16701215 C3.77565108,-0.107841128 1.94073445,0.0743606927 1.66544998,1.62223696 Z" id="Shape"></path>
                    </g>
                    <g id="Black-S" transform="translate(2391.570000, 3.000000)" fill-rule="nonzero">
                        <path d="M0.499529558,2.99139373 C0.316180631,5.2860955 0.2246,7.58079727 0.2246,9.69202817 C0.2246,35.2091419 15.5273856,52.0063138 35.5034107,52.0063138 C44.3002182,52.0063138 52.455586,47.4169102 55.8461336,39.7985455 C58.6868222,43.6536896 60.1528629,48.0594342 62.535273,54.5764098 C62.9935515,55.8614579 64.1846627,56.5039819 65.3759615,55.9531933 L66.8421899,55.2189338 C68.4915796,54.392939 69.2246,53.5667561 69.2246,51.7309195 C69.2246,46.8663096 62.8102025,39.70681 59.4198426,36.7695842 C45.2165875,24.4698925 23.3162432,31.7211276 18.7345843,17.8611815 C18.6430037,17.5857872 18.6430037,17.3103929 18.6430037,17.1267341 C18.6430037,16.5761335 19.0095139,16.2090037 19.3760241,16.2090037 C19.9258832,16.2090037 20.2006251,16.3924746 20.5673229,16.7596043 C30.5552417,26.7645943 44.5751478,19.4214358 57.4955233,28.6921663 C60.0612823,30.527815 62.2603434,30.527815 62.2603434,27.131724 L62.2603434,26.3057291 C62.2603434,10.7016819 51.2644748,3.90931203 35.595179,3.90931203 C30.2803121,3.90931203 24.8740522,5.56148979 19.9258832,5.56148979 C14.7027846,5.56148979 9.57126663,5.2860955 6.45564853,2.16539884 C3.52337936,-0.771826944 0.774459115,-0.496620637 0.499529558,2.99139373 Z" id="Shape"></path>
                    </g>
                    <g id="Heavy-S" transform="translate(2094.470000, 2.000000)" fill-rule="nonzero">
                        <path d="M0.713613408,3.25579866 C0.437631256,5.85296532 0.3457,8.3574303 0.3457,10.676302 C0.3457,36.0911886 15.8911247,53.6218735 36.1274924,53.6218735 C44.9579794,53.6218735 53.2366904,49.1697235 56.731962,41.7492202 C59.6754576,45.7376719 61.2392309,50.2827136 63.6309506,57.2393285 C63.998864,58.4452102 65.1026043,59.0016102 66.2063445,58.4452102 L67.9541687,57.6103252 C69.6098732,56.7756302 70.3457,55.9407452 70.3457,53.9928702 C70.3457,48.9841302 63.8148131,41.6565186 60.4114728,38.5956536 C46.061908,25.8881153 23.8936652,33.4013202 19.1104141,19.1170936 C19.0184829,18.8387986 19.0184829,18.5605036 19.0184829,18.3749103 C19.0184829,17.8185103 19.3863963,17.4473236 19.7543097,17.4473236 C20.306274,17.4473236 20.5822561,17.6329169 20.9501695,18.0039136 C31.2524985,28.3925802 45.6939946,20.5083786 58.9396308,30.7114519 C61.1472996,32.3810319 63.1709176,32.2881403 63.1709176,29.4128686 C63.2628488,28.8562786 63.2628488,28.3925802 63.2628488,27.8359903 C63.2628488,11.8821836 52.1327618,5.0182703 36.2196121,5.0182703 C30.8843967,5.0182703 25.4574385,6.4095553 20.5822561,6.4095553 C14.8791273,6.4095553 9.54410035,5.85296532 6.14076004,2.42110364 C3.5651778,-0.176063015 0.897664304,0.102231979 0.713613408,3.25579866 Z" id="Shape"></path>
                    </g>
                    <g id="Bold-S" transform="translate(1797.440000, 2.000000)" fill-rule="nonzero">
                        <path d="M0.733371656,2.39155588 C0.551235828,5.15191203 0.3691,7.91226818 0.3691,10.4887011 C0.3691,35.3326602 15.9349089,53.183579 36.142851,53.183579 C44.9724306,53.183579 53.1650008,48.9508947 56.7150649,41.8657042 C59.7189079,45.9144652 61.2664099,50.6991077 63.8150065,57.9682214 C64.1792782,58.9803646 65.1805592,59.4405496 66.0906791,58.9803646 L68.0022664,57.9682214 C69.7319042,57.2321516 70.3691,56.31197 70.3691,54.3796453 C70.3691,49.3189296 63.9061677,41.7737425 60.4470783,38.645163 C46.1558474,25.7631869 23.9451568,33.4003356 19.1207012,18.9540697 C19.0297265,18.6779964 19.0297265,18.4019231 19.0297265,18.2179998 C19.0297265,17.6658532 19.3938118,17.2058567 19.8490581,17.2058567 C20.3950928,17.2058567 20.6682033,17.48193 21.0322885,17.8499649 C31.5005313,28.4315814 46.0648727,20.0583629 59.536772,31.2840876 C61.3573846,32.7562273 63.1778108,32.480154 63.2689719,30.1797944 C63.2689719,29.4437246 63.3599466,28.6156931 63.3599466,27.7874732 C63.3599466,11.7769176 52.1635334,4.96780034 36.2338257,4.96780034 C30.9543102,4.96780034 25.6747947,6.07209356 20.8503391,6.07209356 C14.8424667,6.07209356 9.19886599,5.33583527 5.55764081,1.56333596 C3.46410411,-0.553100408 1.00629576,-0.277027103 0.733371656,2.39155588 Z" id="Shape"></path>
                    </g>
                    <g id="Semibold-S" transform="translate(1500.200000, 1.000000)" fill-rule="nonzero">
                        <path d="M1.14367588,2.80459739 C0.868807876,5.74484909 0.6855,8.59308267 0.6855,11.3496745 C0.6855,35.8823819 16.4430353,54.1670781 36.8727638,54.1670781 C45.8507221,54.1670781 54.1875718,50.0322844 57.8520407,43.2329171 C60.9669612,47.3677107 62.5242339,52.2375202 65.0894184,59.6800735 C65.4558465,60.5989374 66.3720107,61.0582753 67.1966147,60.5989374 L69.3036233,59.5880554 C71.0442039,58.7612096 71.6855,57.8423456 71.6855,55.9127878 C71.6855,50.7674885 65.0894184,43.0492572 61.6080698,39.9251574 C47.1333143,26.8777788 24.6881373,34.5960101 19.7410761,19.8947516 C19.649516,19.6190736 19.5577682,19.4354137 19.5577682,19.2515656 C19.5577682,18.7002096 20.0159441,18.2408718 20.4739324,18.2408718 C20.9321082,18.2408718 21.2985364,18.5165498 21.6649645,18.8840577 C32.3836909,29.6343706 47.3166222,20.9054455 61.0585214,32.8503003 C62.6159816,34.0446541 64.3565622,33.7689761 64.4481223,31.8396064 C64.4481223,31.0125724 64.53987,30.0018785 64.53987,28.9911847 C64.53987,12.8197062 53.1798475,5.92850897 36.9643239,5.92850897 C31.8339549,5.92850897 26.5204656,6.93920285 21.5734044,6.93920285 C15.2520032,6.93920285 9.48033798,5.92850897 5.54100106,1.97756339 C3.80042054,0.140023693 1.32679613,0.415513516 1.14367588,2.80459739 Z" id="Shape"></path>
                    </g>
                    <g id="Medium-S" transform="translate(1203.830000, 1.000000)" fill-rule="nonzero">
                        <path d="M0.694611206,2.38319392 C0.421505603,5.37644575 0.1484,8.27904365 0.1484,11.1816415 C0.1484,35.2188675 15.9868472,53.5413658 36.3765573,53.5413658 C45.2971371,53.5413658 53.6715056,49.5503633 57.3124787,42.9287248 C60.4074269,47.1012209 62.0458741,51.9995058 64.5946112,59.5280552 C64.8675304,60.4351519 65.7778203,60.7072994 66.5059776,60.3443122 L68.7816091,59.2559076 C70.5112157,58.5303046 71.1484,57.532554 71.1484,55.6277067 C71.1484,50.5481139 64.5946112,42.8380708 61.1355843,39.6633254 C46.6624787,26.6017277 24.2702427,34.3117708 19.1727685,19.7079416 C19.0817955,19.4359798 19.0817955,19.1638322 19.0817955,18.9823386 C19.0817955,18.4380434 19.4458741,17.984588 19.9009259,17.984588 C20.4471371,17.984588 20.7202427,18.2567355 21.0843213,18.619537 C32.0074269,29.5043256 47.0265573,20.6150383 60.7715056,32.860379 C62.1368472,33.9489693 63.7752944,33.585982 63.8662675,31.9532823 C63.9574269,31.0463714 64.0484,29.8671271 64.0484,28.6878829 C64.0484,12.7236873 52.6702427,5.92074091 36.4677168,5.92074091 C31.2792696,5.92074091 26.0908224,6.73699788 21.2664539,6.73699788 C14.7124787,6.73699788 8.79587414,5.64859333 4.69966293,1.47609724 C3.15237521,-0.0659485246 0.876743748,0.206199054 0.694611206,2.38319392 Z" id="Shape"></path>
                    </g>
                    <g id="Regular-S" transform="translate(906.580000, 1.000000)" fill-rule="nonzero">
                        <path d="M1.11410597,1.78455576 C0.743101126,4.95746943 0.4648,8.03959582 0.4648,11.1219079 C0.4648,34.7824867 16.6974493,53.5477925 37.6604578,53.5477925 C46.8434451,53.5477925 55.3771265,49.6496945 59.1800686,43.2132655 C62.4265985,47.4741414 64.0035116,52.460016 66.6934392,60.2562121 C66.9717403,61.0721837 67.8066437,61.3441743 68.4559496,60.9815821 L70.9602798,59.8030183 C72.815494,59.0778339 73.4648,58.080659 73.4648,56.1769108 C73.4648,50.91886 66.6007354,43.1226639 63.0759045,39.9497502 C48.3276545,26.6236984 25.3238343,34.5104961 20.0366829,19.6432883 C19.9439791,19.3712978 19.8510854,19.1900945 19.8510854,19.0087056 C19.8510854,18.4649101 20.314984,18.0115307 20.7786925,18.0115307 C21.3352948,18.0115307 21.6135959,18.2835212 21.9846008,18.6461134 C33.3009134,29.7060105 48.8840668,20.45926 63.1687981,33.332118 C64.189109,34.3292929 65.7658321,33.8759134 65.8587258,32.6069336 C65.9514295,31.5189714 66.0441332,30.2498059 66.0441332,28.8900388 C66.0441332,12.7536655 54.4495194,5.86404272 37.7533515,5.86404272 C32.5589037,5.86404272 27.2717523,6.49862546 22.2629019,6.49862546 C15.3988373,6.49862546 9.18407875,5.22945999 4.82453436,0.877982468 C3.52592242,-0.300581372 1.29970338,-0.119192451 1.11410597,1.78455576 Z" id="Shape"></path>
                    </g>
                    <g id="Light-S" transform="translate(609.600000, 0.000000)" fill-rule="nonzero">
                        <path d="M0.838783172,2.1826513 C0.471105397,5.68827703 0.1953,9.19371382 0.1953,12.5147534 C0.1953,37.6073252 16.6498688,56.7033971 37.8846252,56.7033971 C47.169195,56.7033971 55.8100934,52.7365894 59.6709924,46.0021227 C62.9802807,50.4303014 64.6349248,55.6886455 67.3927905,63.8990458 C67.6685959,64.6370126 68.4039515,64.9137974 68.9555622,64.544814 L71.6213673,63.2532776 C73.4597562,62.5153108 74.1953,61.4081717 74.1953,59.4708671 C74.1953,54.0281257 67.2088575,45.9099241 63.7156362,42.5888845 C48.7319668,28.6589581 26.026311,36.5925736 20.0512177,21.4633094 C19.9593453,21.1865246 19.8672847,21.0019385 19.8672847,20.8175412 C19.8672847,20.171773 20.3270231,19.7104021 20.7865732,19.7104021 C21.338184,19.7104021 21.6139894,19.9871869 21.9816672,20.3561703 C33.564176,31.9799977 49.4673223,22.1090776 64.0835023,35.9468054 C65.0026026,36.8693584 66.3816296,36.500186 66.4735019,35.3932358 C66.5653743,34.1016995 66.6572467,32.6257658 66.6572467,31.0574447 C66.6572467,14.2676607 54.8908048,7.07201202 37.9766859,7.07201202 C32.7369481,7.07201202 27.3132773,7.71778021 22.2574726,7.71778021 C14.9952247,7.71778021 8.4685206,6.42624384 4.14807141,1.4446845 C3.04503809,0.245346737 1.02271619,0.522131522 0.838783172,2.1826513 Z" id="Shape"></path>
                    </g>
                    <g id="Thin-S" transform="translate(311.867000, 0.000000)" fill-rule="nonzero">
                        <path d="M1.31048315,1.30156543 C0.761027715,5.23485564 0.4863,9.07653892 0.4863,12.7355704 C0.4863,38.8051391 17.4260297,57.9228853 39.2187822,57.9228853 C48.7418012,57.9228853 57.6236639,53.8065686 61.4694768,46.9461656 C65.0405621,51.5197676 66.6887408,56.9167078 69.5271563,65.4236 C69.7103706,66.0639118 70.3513395,66.2467509 70.809094,66.0639118 L73.8309113,64.6002617 C75.7536303,63.7771108 76.4863,62.5879068 76.4863,60.6669715 C76.4863,55.0871921 69.2524286,46.7631391 65.6815309,43.3787411 C50.4814934,29.109043 27.8645577,36.9756234 20.9971149,21.8827743 C20.8140881,21.5169086 20.7223872,21.3338821 20.7223872,21.151043 C20.7223872,20.6021508 21.2718426,20.0532586 21.7297847,20.0532586 C22.1875392,20.0532586 22.5537803,20.4191243 22.9200214,20.7849899 C34.8237014,32.6764675 51.3971899,22.3400596 66.4140131,37.0672303 C67.1464953,37.7989616 68.428433,37.5245155 68.5199464,36.5183381 C68.6116473,35.146295 68.7031607,33.4998058 68.7031607,31.5788704 C68.7031607,14.5648988 56.7079673,7.24721053 39.3104831,7.24721053 C33.9080048,7.24721053 28.3224997,7.8875223 23.1947491,7.8875223 C15.4116098,7.8875223 8.45265363,6.42387225 4.05738524,0.844092833 C3.1416887,-0.2535042 1.49350994,-0.070665029 1.31048315,1.30156543 Z" id="Shape"></path>
                    </g>
                    <g id="Ultralight-S" transform="translate(16.000000, 1.000000)" fill-rule="nonzero">
                        <path d="M0.926400946,1.11444582 C0.277939256,5.27301085 1.13686838e-13,9.33940306 1.13686838e-13,13.1283305 C1.13686838e-13,40.2061306 17.3231096,59.6133352 39.8337229,59.6133352 C49.5606483,59.6133352 58.6389222,55.3622188 62.6222755,48.3385365 C66.2351064,53.0518418 67.9953251,58.5967844 70.8669214,67.3761035 C71.0522775,67.9306545 71.7007392,68.1155679 72.1638448,67.9306545 L75.3135701,66.4519148 C77.2589551,65.5279154 78,64.3264513 78,62.2933498 C78,56.6560451 70.6817551,48.1538123 66.976341,44.6419711 C51.4132604,29.9478826 28.5321246,37.8957536 21.0285236,22.647114 C20.8433573,22.2774764 20.7505844,22.0925629 20.7505844,21.9078388 C20.7505844,21.2609256 21.3064629,20.7063746 21.7695685,20.7063746 C22.2328638,20.7063746 22.6033863,21.0760122 22.9739087,21.4456498 C35.2944911,33.6446372 52.4322446,22.9243895 67.9025522,38.3577533 C68.5510139,39.0046664 69.7553541,38.819753 69.8479373,37.8957536 C70.0332934,36.4170139 70.1258765,34.5686366 70.1258765,32.6280864 C70.1258765,15.0690699 57.7125213,7.49102576 39.9263061,7.49102576 C34.3682799,7.49102576 28.6247078,8.13793889 23.2518479,8.13793889 C15.1923684,8.13793889 7.87412346,6.75175054 3.42766453,0.652256859 C2.59384676,-0.364293878 1.11175702,-0.179380441 0.926400946,1.11444582 Z" id="Shape"></path>
                    </g>
                </g>
            </g>
        </g>
    </g>
</svg>